<svg wdith="1920" height="900" viewBox="0 0 1920 900" fill="none" xmlns="http://www.w3.org/2000/svg">
<g clip-path="url(#clip0_2_292)">
<rect width="1920" height="900" fill="white"/>
<path opacity="0.25" d="M1790.98 597C1655.7 597 1546 706.702 1546 841.834C1546 861.942 1548.37 881.605 1553.1 900.382H1613.86C1607.8 882.049 1604.55 862.237 1604.55 841.834C1604.55 738.933 1687.93 655.4 1790.98 655.4C1841.1 655.4 1886.64 675.211 1920.05 707.442V633.666C1882.5 610.454 1838.29 597 1790.98 597Z" fill="#F2F2F9"/>
<path fill-rule="evenodd" clip-rule="evenodd" d="M0 760L79.5 766.237C160.5 772.474 319.5 784.948 480 806.058C640.5 827.647 799.5 858.353 960 864.59C1120.5 870.827 1279.5 852.116 1440 846.358C1600.5 840.121 1759.5 846.358 1840.5 849.237L1920 852.116V926H1840.5C1759.5 926 1600.5 926 1440 926C1279.5 926 1120.5 926 960 926C799.5 926 640.5 926 480 926C319.5 926 160.5 926 79.5 926H0V760Z" fill="#E1EFFF" fill-opacity="0.5"/>
<path fill-rule="evenodd" clip-rule="evenodd" d="M0 814.2L64 825.64C128 837.08 256 859.96 384 854.24C512 848.52 640 814.2 768 791.32C896 768.44 1024 757 1152 757C1280 757 1408 768.44 1536 788.46C1664 808.48 1792 837.08 1856 851.38L1920 865.68V900H1856C1792 900 1664 900 1536 900C1408 900 1280 900 1152 900C1024 900 896 900 768 900C640 900 512 900 384 900C256 900 128 900 64 900H0V814.2Z" fill="#E4F2FF" fill-opacity="0.5"/>
<path d="M1324.56 0L1074 904H2118V0H1324.56Z" fill="#043160"/>
<g clip-path="url(#clip1_2_292)">
<path opacity="0.25" d="M1832.6 694C1741.2 694 1667 768.2 1667 859.6C1667 873.2 1668.6 886.5 1671.8 899.2H1713C1708.9 886.8 1706.7 873.4 1706.7 859.6C1706.6 790 1763 733.6 1832.6 733.6C1866.5 733.6 1897.3 747 1920 768.8V718.9C1894.6 703.1 1864.7 694 1832.6 694Z" fill="white"/>
</g>
<path d="M1766.5 366C1816.48 366 1857 325.482 1857 275.5C1857 225.518 1816.48 185 1766.5 185C1716.52 185 1676 225.518 1676 275.5C1676 325.482 1716.52 366 1766.5 366Z" stroke="white" stroke-miterlimit="10"/>
</g>
<defs>
<clipPath id="clip0_2_292">
<rect width="1920" height="900" fill="white"/>
</clipPath>
<clipPath id="clip1_2_292">
<rect width="253" height="205.2" fill="white" transform="translate(1668 694)"/>
</clipPath>
</defs>
</svg>
