<svg width="609" height="439" viewBox="0 0 609 439" fill="none" xmlns="http://www.w3.org/2000/svg">
                        <path opacity="0.05" d="M149.854 125.459C104.14 125.459 67.0857 162.514 67.0857 208.228C67.0857 253.941 104.14 290.996 149.854 290.996C195.568 290.996 232.622 253.941 232.622 208.228C232.622 162.514 195.568 125.459 149.854 125.459ZM149.854 271.16C115.015 271.16 86.8212 242.966 86.8212 208.127C86.8212 173.288 115.015 145.094 149.854 145.094C184.693 145.094 212.887 173.288 212.887 208.127C212.887 242.966 184.693 271.16 149.854 271.16Z" fill="#000086"/>
                        <path d="M486.522 408.735C486.522 408.735 481.761 403.491 468.042 398.892C454.324 394.293 434.31 400.667 429.388 404.459C424.465 408.251 424.142 410.268 430.437 412.285C436.731 414.303 446.496 416.239 457.39 422.129C468.284 428.1 476.274 431.004 486.119 425.437C495.803 419.95 490.638 412.769 486.522 408.735Z" fill="white" stroke="#263238" stroke-linecap="round" stroke-linejoin="round"/>
                        <path d="M454.969 416.723C445.123 411.317 433.019 411.237 428.177 411.479C428.903 411.801 429.629 412.043 430.355 412.285C436.65 414.303 446.415 416.239 457.309 422.129C464.895 426.244 471.108 428.987 477.484 428.342C462.958 425.195 464.652 422.048 454.969 416.723Z" fill="white"/>
                        <path d="M454.97 416.723C445.125 411.317 433.02 411.237 428.178 411.479C428.904 411.802 429.63 412.044 430.357 412.286C436.651 414.303 446.416 416.239 457.31 422.129C464.896 426.244 471.11 428.988 477.485 428.342C462.959 425.195 464.654 422.049 454.97 416.723Z" fill="#263238" stroke="#263238" stroke-linecap="round" stroke-linejoin="round"/>
                        <path d="M454.969 416.723C445.123 411.317 433.019 411.237 428.177 411.479C428.903 411.801 429.629 412.043 430.355 412.285C436.65 414.303 446.415 416.239 457.309 422.129C464.895 426.244 471.108 428.987 477.484 428.342C462.958 425.195 464.652 422.048 454.969 416.723Z" stroke="#263238" stroke-linecap="round" stroke-linejoin="round"/>
                        <path d="M435.682 437.301H180.351C177.688 437.301 176.236 436.413 177.123 435.364L204.238 403.736C204.803 403.09 206.901 402.525 208.999 402.525H406.953C409.052 402.525 411.15 403.09 411.715 403.736L438.829 435.283C439.798 436.413 438.345 437.301 435.682 437.301Z" fill="#263238" stroke="#263238" stroke-width="1.0954" stroke-linecap="round" stroke-linejoin="round"/>
                        <path d="M310.116 403.252H298.414L298.092 407.367H310.196L310.116 403.252Z" fill="white" stroke="#263238" stroke-width="1.0954" stroke-linecap="round" stroke-linejoin="round"/>
                        <path d="M281.87 403.252H270.088L268.797 407.367H280.902L281.87 403.252Z" fill="white" stroke="#263238" stroke-width="1.0954" stroke-linecap="round" stroke-linejoin="round"/>
                        <path d="M324.238 403.252H312.537L312.698 407.367H324.803L324.238 403.252Z" fill="white" stroke="#263238" stroke-width="1.0954" stroke-linecap="round" stroke-linejoin="round"/>
                        <path d="M253.546 403.252H241.844L239.585 407.367H251.69L253.546 403.252Z" fill="white" stroke="#263238" stroke-width="1.0954" stroke-linecap="round" stroke-linejoin="round"/>
                        <path d="M267.667 403.252H255.965L254.19 407.367H266.295L267.667 403.252Z" fill="white" stroke="#263238" stroke-width="1.0954" stroke-linecap="round" stroke-linejoin="round"/>
                        <path d="M224.896 407.367H237.082L239.422 403.252H227.721L224.896 407.367Z" fill="white" stroke="#263238" stroke-width="1.0954" stroke-linecap="round" stroke-linejoin="round"/>
                        <path d="M295.993 403.252H284.292L283.404 407.367H295.59L295.993 403.252Z" fill="white" stroke="#263238" stroke-width="1.0954" stroke-linecap="round" stroke-linejoin="round"/>
                        <path d="M338.44 403.252H326.658L327.304 407.367H339.489L338.44 403.252Z" fill="white" stroke="#263238" stroke-width="1.0954" stroke-linecap="round" stroke-linejoin="round"/>
                        <path d="M225.301 403.252H207.386L203.996 407.367H222.396L225.301 403.252Z" fill="white" stroke="#263238" stroke-width="1.0954" stroke-linecap="round" stroke-linejoin="round"/>
                        <path d="M397.43 403.252L400.497 407.367H413.005L409.535 403.252H397.43Z" fill="white" stroke="#263238" stroke-width="1.0954" stroke-linecap="round" stroke-linejoin="round"/>
                        <path d="M395.01 403.252H383.228L385.811 407.367H397.996L395.01 403.252Z" fill="white" stroke="#263238" stroke-width="1.0954" stroke-linecap="round" stroke-linejoin="round"/>
                        <path d="M380.806 403.252H369.105L371.203 407.367H383.308L380.806 403.252Z" fill="white" stroke="#263238" stroke-width="1.0954" stroke-linecap="round" stroke-linejoin="round"/>
                        <path d="M352.563 403.252H340.861L341.991 407.367H354.096L352.563 403.252Z" fill="white" stroke="#263238" stroke-width="1.0954" stroke-linecap="round" stroke-linejoin="round"/>
                        <path d="M366.685 403.252H354.984L356.598 407.367H368.702L366.685 403.252Z" fill="white" stroke="#263238" stroke-width="1.0954" stroke-linecap="round" stroke-linejoin="round"/>
                        <path d="M273.397 407.765H261.211L259.597 412.283H272.186L273.397 407.765Z" fill="white" stroke="#263238" stroke-width="1.0954" stroke-linecap="round" stroke-linejoin="round"/>
                        <path d="M288.165 407.765H275.899L274.769 412.283H287.439L288.165 407.765Z" fill="white" stroke="#263238" stroke-width="1.0954" stroke-linecap="round" stroke-linejoin="round"/>
                        <path d="M302.853 407.765H290.667L290.022 412.283H302.611L302.853 407.765Z" fill="white" stroke="#263238" stroke-width="1.0954" stroke-linecap="round" stroke-linejoin="round"/>
                        <path d="M244.022 407.765H231.837L229.093 412.283H241.763L244.022 407.765Z" fill="white" stroke="#263238" stroke-width="1.0954" stroke-linecap="round" stroke-linejoin="round"/>
                        <path d="M213.923 412.283H226.512L229.336 407.765H217.151L213.923 412.283Z" fill="white" stroke="#263238" stroke-width="1.0954" stroke-linecap="round" stroke-linejoin="round"/>
                        <path d="M317.539 407.765H305.354L305.273 412.283H317.862L317.539 407.765Z" fill="white" stroke="#263238" stroke-width="1.0954" stroke-linecap="round" stroke-linejoin="round"/>
                        <path d="M258.709 407.765H246.524L244.345 412.283H256.934L258.709 407.765Z" fill="white" stroke="#263238" stroke-width="1.0954" stroke-linecap="round" stroke-linejoin="round"/>
                        <path d="M391.056 407.765H378.87L381.372 412.283H393.961L391.056 407.765Z" fill="white" stroke="#263238" stroke-width="1.0954" stroke-linecap="round" stroke-linejoin="round"/>
                        <path d="M214.649 407.765H203.593L199.881 412.283H211.259L214.649 407.765Z" fill="white" stroke="#263238" stroke-width="1.0954" stroke-linecap="round" stroke-linejoin="round"/>
                        <path d="M393.558 407.765L396.624 412.283H417.122L413.329 407.765H393.558Z" fill="white" stroke="#263238" stroke-width="1.0954" stroke-linecap="round" stroke-linejoin="round"/>
                        <path d="M376.37 407.765H364.184L366.121 412.283H378.791L376.37 407.765Z" fill="white" stroke="#263238" stroke-width="1.0954" stroke-linecap="round" stroke-linejoin="round"/>
                        <path d="M332.227 407.765H320.041L320.445 412.283H333.114L332.227 407.765Z" fill="white" stroke="#263238" stroke-width="1.0954" stroke-linecap="round" stroke-linejoin="round"/>
                        <path d="M346.914 407.765H334.728L335.697 412.283H348.286L346.914 407.765Z" fill="white" stroke="#263238" stroke-width="1.0954" stroke-linecap="round" stroke-linejoin="round"/>
                        <path d="M361.6 407.765H349.415L350.948 412.283H363.537L361.6 407.765Z" fill="white" stroke="#263238" stroke-width="1.0954" stroke-linecap="round" stroke-linejoin="round"/>
                        <path d="M341.427 429.956H257.823L255.644 436.249H342.88L341.427 429.956Z" fill="white" stroke="#263238" stroke-width="1.0954" stroke-linecap="round" stroke-linejoin="round"/>
                        <path d="M254.836 429.956H236.195L233.128 436.249H252.577L254.836 429.956Z" fill="white" stroke="#263238" stroke-width="1.0954" stroke-linecap="round" stroke-linejoin="round"/>
                        <path d="M359.743 429.956H344.411L345.944 436.249H361.922L359.743 429.956Z" fill="white" stroke="#263238" stroke-width="1.0954" stroke-linecap="round" stroke-linejoin="round"/>
                        <path d="M197.621 436.249H212.792L216.666 429.956H202.14L197.621 436.249Z" fill="white" stroke="#263238" stroke-width="1.0954" stroke-linecap="round" stroke-linejoin="round"/>
                        <path d="M233.209 429.956H219.652L215.859 436.249H230.062L233.209 429.956Z" fill="white" stroke="#263238" stroke-width="1.0954" stroke-linecap="round" stroke-linejoin="round"/>
                        <path d="M199.154 429.956H185.113L179.867 436.249H194.554L199.154 429.956Z" fill="white" stroke="#263238" stroke-width="1.0954" stroke-linecap="round" stroke-linejoin="round"/>
                        <path d="M377.984 429.956H362.651L364.991 436.249H380.969L377.984 429.956Z" fill="white" stroke="#263238" stroke-width="1.0954" stroke-linecap="round" stroke-linejoin="round"/>
                        <path d="M417.525 429.956L422.125 436.249H437.296L432.051 429.956H417.525Z" fill="white" stroke="#263238" stroke-width="1.0954" stroke-linecap="round" stroke-linejoin="round"/>
                        <path d="M396.302 429.956H380.97L384.036 436.249H400.015L396.302 429.956Z" fill="white" stroke="#263238" stroke-width="1.0954" stroke-linecap="round" stroke-linejoin="round"/>
                        <path d="M414.54 429.956H399.207L403.081 436.249H419.059L414.54 429.956Z" fill="white" stroke="#263238" stroke-width="1.0954" stroke-linecap="round" stroke-linejoin="round"/>
                        <path d="M290.264 423.743H276.545L275.334 429.471H289.537L290.264 423.743Z" fill="white" stroke="#263238" stroke-width="1.0954" stroke-linecap="round" stroke-linejoin="round"/>
                        <path d="M323.269 423.743H309.631V429.471H323.915L323.269 423.743Z" fill="white" stroke="#263238" stroke-width="1.0954" stroke-linecap="round" stroke-linejoin="round"/>
                        <path d="M273.719 423.743H260.081L258.144 429.471H272.347L273.719 423.743Z" fill="white" stroke="#263238" stroke-width="1.0954" stroke-linecap="round" stroke-linejoin="round"/>
                        <path d="M240.715 423.743H226.996L223.768 429.471H237.971L240.715 423.743Z" fill="white" stroke="#263238" stroke-width="1.0954" stroke-linecap="round" stroke-linejoin="round"/>
                        <path d="M206.579 429.471H220.782L224.171 423.743H210.533L206.579 429.471Z" fill="white" stroke="#263238" stroke-width="1.0954" stroke-linecap="round" stroke-linejoin="round"/>
                        <path d="M257.257 423.743H243.539L240.956 429.471H255.159L257.257 423.743Z" fill="white" stroke="#263238" stroke-width="1.0954" stroke-linecap="round" stroke-linejoin="round"/>
                        <path d="M306.807 423.743H293.088L292.523 429.471H306.726L306.807 423.743Z" fill="white" stroke="#263238" stroke-width="1.0954" stroke-linecap="round" stroke-linejoin="round"/>
                        <path d="M207.709 423.743H190.278L185.598 429.471H203.594L207.709 423.743Z" fill="white" stroke="#263238" stroke-width="1.0954" stroke-linecap="round" stroke-linejoin="round"/>
                        <path d="M389.361 423.743H375.642L378.386 429.471H392.67L389.361 423.743Z" fill="white" stroke="#263238" stroke-width="1.0954" stroke-linecap="round" stroke-linejoin="round"/>
                        <path d="M392.185 423.743L395.574 429.471H431.566L426.805 423.743H392.185Z" fill="white" stroke="#263238" stroke-width="1.0954" stroke-linecap="round" stroke-linejoin="round"/>
                        <path d="M339.812 423.743H326.093L326.819 429.471H341.103L339.812 423.743Z" fill="white" stroke="#263238" stroke-width="1.0954" stroke-linecap="round" stroke-linejoin="round"/>
                        <path d="M356.355 423.743H342.636L344.008 429.471H358.292L356.355 423.743Z" fill="white" stroke="#263238" stroke-width="1.0954" stroke-linecap="round" stroke-linejoin="round"/>
                        <path d="M372.818 423.743H359.18L361.197 429.471H375.481L372.818 423.743Z" fill="white" stroke="#263238" stroke-width="1.0954" stroke-linecap="round" stroke-linejoin="round"/>
                        <path d="M298.898 418.014H285.744L284.937 423.258H298.575L298.898 418.014Z" fill="white" stroke="#263238" stroke-width="1.0954" stroke-linecap="round" stroke-linejoin="round"/>
                        <path d="M314.795 418.014H301.642L301.399 423.258H315.118L314.795 418.014Z" fill="white" stroke="#263238" stroke-width="1.0954" stroke-linecap="round" stroke-linejoin="round"/>
                        <path d="M283.082 418.014H269.847L268.394 423.258H282.113L283.082 418.014Z" fill="white" stroke="#263238" stroke-width="1.0954" stroke-linecap="round" stroke-linejoin="round"/>
                        <path d="M267.183 418.014H254.029L251.931 423.258H265.569L267.183 418.014Z" fill="white" stroke="#263238" stroke-width="1.0954" stroke-linecap="round" stroke-linejoin="round"/>
                        <path d="M251.286 418.014H238.132L235.388 423.258H249.107L251.286 418.014Z" fill="white" stroke="#263238" stroke-width="1.0954" stroke-linecap="round" stroke-linejoin="round"/>
                        <path d="M218.926 423.258H232.564L235.388 418.014H222.234L218.926 423.258Z" fill="white" stroke="#263238" stroke-width="1.0954" stroke-linecap="round" stroke-linejoin="round"/>
                        <path d="M330.692 418.014H317.538L317.861 423.258H331.58L330.692 418.014Z" fill="white" stroke="#263238" stroke-width="1.0954" stroke-linecap="round" stroke-linejoin="round"/>
                        <path d="M219.491 418.014H195.12L190.762 423.258H216.101L219.491 418.014Z" fill="white" stroke="#263238" stroke-width="1.0954" stroke-linecap="round" stroke-linejoin="round"/>
                        <path d="M410.101 418.014H396.948L400.418 423.258H414.056L410.101 418.014Z" fill="white" stroke="#263238" stroke-width="1.0954" stroke-linecap="round" stroke-linejoin="round"/>
                        <path d="M346.591 418.014H333.437L334.405 423.258H348.043L346.591 418.014Z" fill="white" stroke="#263238" stroke-width="1.0954" stroke-linecap="round" stroke-linejoin="round"/>
                        <path d="M394.203 418.014H381.049L383.874 423.258H397.593L394.203 418.014Z" fill="white" stroke="#263238" stroke-width="1.0954" stroke-linecap="round" stroke-linejoin="round"/>
                        <path d="M362.488 418.014H349.334L350.867 423.258H364.586L362.488 418.014Z" fill="white" stroke="#263238" stroke-width="1.0954" stroke-linecap="round" stroke-linejoin="round"/>
                        <path d="M378.304 418.014H365.15L367.409 423.258H381.048L378.304 418.014Z" fill="white" stroke="#263238" stroke-width="1.0954" stroke-linecap="round" stroke-linejoin="round"/>
                        <path d="M280.741 417.528H293.653L294.137 412.687H281.709L280.741 417.528Z" fill="white" stroke="#263238" stroke-width="1.0954" stroke-linecap="round" stroke-linejoin="round"/>
                        <path d="M265.167 417.528H278.079L279.128 412.687H266.781L265.167 417.528Z" fill="white" stroke="#263238" stroke-width="1.0954" stroke-linecap="round" stroke-linejoin="round"/>
                        <path d="M290.125 413.455H303.036L302.956 408.614H290.528L290.125 413.455Z" fill="white" stroke="#263238" stroke-width="1.0954" stroke-linecap="round" stroke-linejoin="round"/>
                        <path d="M218.521 417.528H231.352L234.096 412.687H221.749L218.521 417.528Z" fill="white" stroke="#263238" stroke-width="1.0954" stroke-linecap="round" stroke-linejoin="round"/>
                        <path d="M234.097 417.528H246.928L249.107 412.687H236.76L234.097 417.528Z" fill="white" stroke="#263238" stroke-width="1.0954" stroke-linecap="round" stroke-linejoin="round"/>
                        <path d="M311.891 417.528H324.722L324.157 412.687H311.729L311.891 417.528Z" fill="white" stroke="#263238" stroke-width="1.0954" stroke-linecap="round" stroke-linejoin="round"/>
                        <path d="M249.672 417.528H262.503L264.117 412.687H251.77L249.672 417.528Z" fill="white" stroke="#263238" stroke-width="1.0954" stroke-linecap="round" stroke-linejoin="round"/>
                        <path d="M417.444 412.687H404.371L407.922 417.528H411.069C411.472 417.528 411.957 417.609 412.279 417.851L416.476 423.257H426.079L417.444 412.687Z" fill="white" stroke="#263238" stroke-width="1.0954" stroke-linecap="round" stroke-linejoin="round"/>
                        <path d="M374.19 417.528H387.021L384.197 412.687H371.769L374.19 417.528Z" fill="white" stroke="#263238" stroke-width="1.0954" stroke-linecap="round" stroke-linejoin="round"/>
                        <path d="M389.684 417.528H405.259L401.789 412.687H386.779L389.684 417.528Z" fill="white" stroke="#263238" stroke-width="1.0954" stroke-linecap="round" stroke-linejoin="round"/>
                        <path d="M195.523 417.528H215.778L219.087 412.687H199.558L195.523 417.528Z" fill="white" stroke="#263238" stroke-width="1.0954" stroke-linecap="round" stroke-linejoin="round"/>
                        <path d="M327.466 417.528H340.298L339.168 412.687H326.74L327.466 417.528Z" fill="white" stroke="#263238" stroke-width="1.0954" stroke-linecap="round" stroke-linejoin="round"/>
                        <path d="M358.616 417.528H371.447L369.187 412.687H356.759L358.616 417.528Z" fill="white" stroke="#263238" stroke-width="1.0954" stroke-linecap="round" stroke-linejoin="round"/>
                        <path d="M344.782 437.567H357.613L355.919 432.726H343.491L344.782 437.567Z" fill="white" stroke="#263238" stroke-width="1.0954" stroke-linecap="round" stroke-linejoin="round"/>
                        <circle cx="84.5108" cy="125.459" r="12.1974" fill="url(#paint0_linear_2_27)"/>
                        <circle cx="57.9377" cy="147.676" r="6.53434" fill="url(#paint1_linear_2_27)"/>
                        <path d="M588.727 213.6C588.727 213.6 576.755 86.1796 480.121 36.5799C383.487 -13.0198 333.032 2.37322 271.46 30.5937C209.888 58.8143 186.713 109.697 133.778 134.069C80.8436 158.441 3.79298 175.117 0.372313 233.268C-3.04836 291.42 17.4757 330.758 46.5514 346.151C75.627 361.544 103.848 361.544 103.848 361.544H550.245C550.245 361.544 605.831 333.323 588.727 213.6Z" fill="#E4F2FF"/>
                        <path opacity="0.7" d="M588.727 213.6C588.727 213.6 576.755 86.1796 480.121 36.5799C383.487 -13.0198 333.032 2.37322 271.46 30.5937C209.888 58.8143 186.713 109.697 133.778 134.069C80.8436 158.441 3.79298 175.117 0.372313 233.268C-3.04836 291.42 17.4757 330.758 46.5514 346.151C75.627 361.544 103.848 361.544 103.848 361.544H550.245C550.245 361.544 605.831 333.323 588.727 213.6Z" fill="white"/>
                        <g opacity="0.3">
                        <path opacity="0.3" d="M116.674 15.6284C116.503 15.6284 116.332 15.5429 116.247 15.3718C116.161 15.1153 116.247 14.9442 116.503 14.7732C116.503 14.7732 116.931 14.6022 117.701 14.2601C117.957 14.1746 118.128 14.2601 118.214 14.5167C118.299 14.7732 118.214 14.9442 117.957 15.0298C117.188 15.3718 116.76 15.5429 116.76 15.5429C116.846 15.6284 116.76 15.6284 116.674 15.6284Z" fill="black"/>
                        <path opacity="0.3" d="M479.607 127.399H479.18C478.923 127.399 478.752 127.228 478.752 126.971C478.752 126.715 478.923 126.544 479.18 126.544H479.607C480.292 126.544 481.061 126.544 481.745 126.544C482.002 126.544 482.173 126.715 482.173 126.971C482.173 127.228 482.002 127.399 481.745 127.399C481.061 127.399 480.377 127.399 479.607 127.399ZM474.99 127.313C474.134 127.313 473.279 127.228 472.424 127.228C472.167 127.228 471.996 126.971 471.996 126.8C471.996 126.544 472.253 126.372 472.424 126.372C473.279 126.458 474.134 126.458 474.99 126.458C475.246 126.458 475.417 126.629 475.417 126.886C475.417 127.142 475.161 127.313 474.99 127.313ZM486.021 127.228C485.765 127.228 485.594 127.057 485.594 126.8C485.594 126.544 485.765 126.372 486.021 126.372C486.876 126.287 487.731 126.287 488.587 126.201C488.843 126.201 489.014 126.372 489.014 126.629C489.014 126.886 488.843 127.057 488.587 127.057C487.731 127.142 486.876 127.142 486.021 127.228ZM468.148 126.886C467.293 126.8 466.438 126.715 465.583 126.629C465.326 126.629 465.155 126.372 465.241 126.116C465.241 125.859 465.497 125.688 465.754 125.774C466.609 125.859 467.464 125.945 468.319 126.03C468.576 126.03 468.747 126.287 468.747 126.458C468.576 126.715 468.405 126.886 468.148 126.886ZM492.777 126.629C492.606 126.629 492.349 126.458 492.349 126.287C492.349 126.03 492.52 125.859 492.691 125.774C493.547 125.688 494.402 125.603 495.257 125.432C495.513 125.432 495.685 125.517 495.77 125.774C495.77 126.03 495.599 126.201 495.428 126.287C494.573 126.372 493.718 126.544 492.777 126.629C492.862 126.629 492.862 126.629 492.777 126.629ZM461.392 126.03C460.452 125.945 459.682 125.774 458.827 125.603C458.57 125.603 458.399 125.346 458.485 125.09C458.485 124.833 458.741 124.662 458.998 124.748C459.853 124.919 460.708 125.004 461.478 125.175C461.734 125.175 461.905 125.432 461.82 125.688C461.82 125.859 461.563 126.03 461.392 126.03ZM499.533 125.603C499.362 125.603 499.191 125.432 499.105 125.261C499.02 125.004 499.191 124.833 499.447 124.748C500.302 124.577 501.072 124.406 501.927 124.235C502.184 124.149 502.355 124.32 502.44 124.577C502.526 124.833 502.355 125.004 502.098 125.09C501.329 125.261 500.473 125.432 499.533 125.603C499.618 125.603 499.618 125.603 499.533 125.603ZM454.636 124.919C453.696 124.748 452.841 124.577 452.071 124.406C451.814 124.32 451.729 124.149 451.729 123.893C451.814 123.636 451.985 123.55 452.242 123.55C453.097 123.721 453.867 123.893 454.722 124.064C454.979 124.149 455.064 124.32 455.064 124.577C455.064 124.748 454.893 124.919 454.636 124.919ZM506.203 124.149C506.032 124.149 505.861 124.064 505.776 123.807C505.69 123.55 505.861 123.379 506.118 123.294C506.973 123.123 507.742 122.866 508.598 122.61C508.854 122.524 509.025 122.695 509.111 122.866C509.196 123.123 509.025 123.294 508.854 123.379C507.999 123.636 507.229 123.807 506.374 124.064C506.289 124.149 506.203 124.149 506.203 124.149ZM448.052 123.465H447.966C447.111 123.294 446.341 123.037 445.486 122.866C445.23 122.781 445.144 122.61 445.144 122.353C445.23 122.097 445.401 122.011 445.657 122.011C446.512 122.182 447.282 122.439 448.137 122.61C448.394 122.695 448.479 122.866 448.479 123.123C448.394 123.379 448.223 123.465 448.052 123.465ZM512.788 122.182C512.617 122.182 512.446 122.097 512.36 121.926C512.275 121.669 512.446 121.498 512.617 121.413C513.387 121.156 514.242 120.899 515.011 120.557C515.268 120.472 515.439 120.557 515.524 120.814C515.61 121.07 515.524 121.241 515.268 121.327C514.498 121.584 513.643 121.926 512.873 122.182H512.788ZM441.381 121.755H441.296C440.441 121.498 439.671 121.327 438.816 121.07C438.559 120.985 438.474 120.728 438.559 120.557C438.645 120.301 438.901 120.215 439.072 120.301C439.928 120.557 440.697 120.814 441.552 120.985C441.809 121.07 441.895 121.327 441.809 121.498C441.809 121.669 441.638 121.755 441.381 121.755ZM434.882 119.873C434.882 119.873 434.797 119.873 434.711 119.873C433.856 119.617 433.086 119.36 432.317 119.104C432.06 119.018 431.975 118.762 432.06 118.59C432.146 118.419 432.402 118.248 432.573 118.334C433.343 118.59 434.198 118.847 434.968 119.104C435.224 119.189 435.31 119.446 435.224 119.617C435.224 119.702 435.053 119.873 434.882 119.873ZM519.116 119.788C518.945 119.788 518.774 119.702 518.689 119.531C518.603 119.275 518.689 119.104 518.945 118.933C519.715 118.59 520.484 118.248 521.254 117.906C521.425 117.821 521.682 117.906 521.853 118.077C521.938 118.248 521.853 118.505 521.682 118.676C520.912 119.018 520.142 119.446 519.373 119.788C519.202 119.702 519.116 119.788 519.116 119.788ZM428.383 117.65C428.297 117.65 428.297 117.65 428.212 117.65C427.442 117.393 426.587 117.051 425.817 116.795C425.561 116.709 425.475 116.453 425.561 116.282C425.646 116.025 425.903 115.939 426.074 116.025C426.844 116.282 427.699 116.624 428.468 116.88C428.725 116.966 428.81 117.222 428.725 117.393C428.725 117.564 428.639 117.65 428.383 117.65ZM525.188 116.709C525.017 116.709 524.931 116.624 524.846 116.453C524.76 116.282 524.76 116.025 525.017 115.854C525.786 115.426 526.471 114.999 527.155 114.571C527.326 114.486 527.582 114.486 527.753 114.742C527.839 114.913 527.839 115.17 527.582 115.341C526.898 115.768 526.128 116.196 525.359 116.624C525.359 116.709 525.273 116.709 525.188 116.709ZM422.055 115.255C421.969 115.255 421.969 115.255 421.884 115.255C421.114 114.913 420.259 114.657 419.489 114.315C419.233 114.229 419.147 113.973 419.233 113.802C419.318 113.545 419.575 113.459 419.831 113.545C420.601 113.887 421.371 114.144 422.226 114.486C422.482 114.571 422.568 114.828 422.482 114.999C422.397 115.17 422.226 115.255 422.055 115.255ZM530.917 113.032C530.746 113.032 530.661 112.946 530.575 112.861C530.404 112.69 530.49 112.433 530.661 112.262C531.345 111.749 532.029 111.236 532.713 110.723C532.884 110.552 533.141 110.637 533.312 110.808C533.483 110.979 533.397 111.236 533.226 111.407C532.542 111.92 531.858 112.433 531.174 112.946C531.088 112.946 531.003 113.032 530.917 113.032ZM415.726 112.775C415.641 112.775 415.641 112.775 415.555 112.775C414.786 112.433 414.016 112.091 413.161 111.749C412.904 111.664 412.819 111.407 412.904 111.151C412.99 110.894 413.246 110.808 413.503 110.894C414.273 111.236 415.042 111.578 415.812 111.92C416.068 112.006 416.154 112.262 416.068 112.519C416.068 112.604 415.897 112.775 415.726 112.775ZM409.484 110.039C409.398 110.039 409.398 110.039 409.313 110.039C408.543 109.697 407.773 109.355 407.004 109.013C406.747 108.927 406.662 108.671 406.833 108.414C406.918 108.157 407.175 108.072 407.431 108.243C408.201 108.585 408.971 108.927 409.74 109.269C409.997 109.355 410.082 109.611 409.997 109.868C409.74 109.953 409.655 110.039 409.484 110.039ZM536.219 108.756C536.134 108.756 535.963 108.671 535.877 108.585C535.706 108.414 535.706 108.157 535.877 107.986C536.476 107.388 537.16 106.875 537.673 106.276C537.844 106.105 538.101 106.105 538.272 106.276C538.443 106.447 538.443 106.704 538.272 106.875C537.673 107.473 537.075 108.072 536.391 108.671C536.391 108.671 536.305 108.756 536.219 108.756ZM403.241 107.217C403.155 107.217 403.155 107.217 403.07 107.217C402.3 106.875 401.531 106.447 400.761 106.105C400.59 106.02 400.419 105.763 400.59 105.506C400.675 105.335 400.932 105.164 401.189 105.335C401.958 105.677 402.728 106.105 403.497 106.447C403.669 106.533 403.84 106.789 403.669 107.046C403.583 107.046 403.412 107.217 403.241 107.217ZM397.169 104.224C397.084 104.224 396.998 104.224 396.998 104.138C396.229 103.796 395.459 103.368 394.689 103.026C394.518 102.941 394.433 102.684 394.518 102.428C394.604 102.257 394.86 102.171 395.117 102.257C395.887 102.684 396.656 103.026 397.426 103.368C397.597 103.454 397.682 103.711 397.597 103.967C397.426 104.138 397.255 104.224 397.169 104.224ZM540.923 103.882C540.837 103.882 540.752 103.882 540.666 103.796C540.495 103.625 540.495 103.368 540.666 103.197C541.265 102.599 541.778 101.915 542.291 101.231C542.462 101.06 542.719 100.974 542.89 101.145C543.061 101.316 543.146 101.573 542.975 101.744C542.462 102.428 541.864 103.112 541.35 103.711C541.179 103.796 541.094 103.882 540.923 103.882ZM391.098 101.06C391.012 101.06 390.927 101.06 390.927 100.974C390.157 100.546 389.387 100.204 388.703 99.7768C388.532 99.6913 388.447 99.4347 388.532 99.1782C388.618 98.9216 388.874 98.9216 389.131 99.0071C389.9 99.4347 390.67 99.7768 391.354 100.204C391.525 100.29 391.611 100.546 391.525 100.803C391.354 100.974 391.183 101.06 391.098 101.06ZM545.113 98.494C545.028 98.494 544.942 98.494 544.857 98.4085C544.686 98.2375 544.6 97.9809 544.771 97.8099C545.284 97.1258 545.712 96.3561 546.139 95.672C546.225 95.501 546.567 95.4154 546.738 95.5009C546.909 95.5865 546.995 95.9285 546.909 96.0996C546.481 96.7837 545.968 97.5534 545.541 98.2375C545.37 98.4085 545.284 98.494 545.113 98.494ZM385.026 97.8954C384.94 97.8954 384.855 97.8954 384.855 97.8099C384.085 97.3823 383.316 96.9547 382.631 96.6127C382.46 96.5272 382.375 96.2706 382.46 96.014C382.546 95.843 382.802 95.7575 383.059 95.843C383.829 96.2706 384.513 96.6982 385.282 97.0403C385.453 97.1258 385.539 97.3823 385.453 97.6389C385.368 97.8099 385.197 97.8954 385.026 97.8954ZM379.125 94.5603C379.04 94.5603 378.954 94.5603 378.954 94.4747C378.185 94.0472 377.5 93.6196 376.731 93.192C376.56 93.1065 376.474 92.8499 376.56 92.5934C376.645 92.4223 376.902 92.3368 377.158 92.4223C377.928 92.8499 378.612 93.2775 379.382 93.7051C379.553 93.7906 379.638 94.0472 379.553 94.3037C379.382 94.4747 379.211 94.5603 379.125 94.5603ZM548.619 92.5934C548.534 92.5934 548.448 92.5934 548.448 92.5079C548.277 92.4223 548.192 92.1658 548.277 91.9092C548.705 91.1396 549.047 90.3699 549.389 89.6003C549.475 89.3437 549.731 89.2582 549.988 89.4293C550.244 89.5148 550.33 89.7713 550.159 90.0279C549.817 90.7975 549.389 91.5672 549.047 92.3368C548.876 92.5079 548.79 92.5934 548.619 92.5934ZM373.139 91.2251C373.054 91.2251 372.968 91.2251 372.883 91.1396C372.113 90.712 371.429 90.2844 370.659 89.8568C370.488 89.7713 370.403 89.5148 370.488 89.2582C370.574 89.0872 370.83 89.0017 371.087 89.0872C371.856 89.5148 372.54 89.9424 373.31 90.3699C373.481 90.4555 373.567 90.712 373.481 90.9686C373.481 91.1396 373.31 91.2251 373.139 91.2251ZM367.238 87.7189C367.153 87.7189 367.067 87.7189 366.982 87.6334C366.212 87.2058 365.528 86.7782 364.758 86.3507C364.587 86.2651 364.502 86.0086 364.587 85.752C364.673 85.581 364.929 85.4955 365.186 85.581C365.956 86.0086 366.64 86.4362 367.409 86.8638C367.58 86.9493 367.666 87.2058 367.58 87.4624C367.58 87.6334 367.409 87.7189 367.238 87.7189ZM551.356 86.3507C551.27 86.3507 551.27 86.3507 551.185 86.3507C550.928 86.2651 550.843 86.0086 550.928 85.8376C551.185 85.0679 551.527 84.2127 551.784 83.4431C551.869 83.1865 552.126 83.101 552.297 83.1865C552.553 83.272 552.639 83.5286 552.553 83.6996C552.297 84.5548 552.04 85.3245 551.698 86.0941C551.698 86.2651 551.527 86.3507 551.356 86.3507ZM361.423 84.2127C361.338 84.2127 361.252 84.2127 361.167 84.1272C360.397 83.6996 359.713 83.272 358.943 82.7589C358.772 82.6734 358.687 82.3314 358.772 82.1603C358.858 81.9893 359.2 81.9038 359.371 81.9893C360.141 82.4169 360.825 82.8445 361.594 83.3576C361.765 83.4431 361.851 83.7852 361.765 83.9562C361.68 84.1272 361.594 84.2127 361.423 84.2127ZM355.608 80.621C355.523 80.621 355.437 80.621 355.352 80.5355L353.214 79.1673C353.043 79.0817 352.957 78.7397 353.043 78.5686C353.128 78.3976 353.47 78.3121 353.641 78.3976L355.779 79.7659C355.95 79.8514 356.036 80.1935 355.95 80.3645C355.865 80.5355 355.779 80.621 355.608 80.621ZM553.408 79.8514H553.323C553.066 79.7659 552.981 79.5948 552.981 79.3383C553.152 78.4831 553.323 77.7135 553.494 76.8583C553.579 76.6018 553.75 76.5162 554.007 76.5162C554.263 76.6018 554.349 76.7728 554.349 77.0293C554.178 77.8845 554.007 78.7397 553.75 79.5093C553.75 79.7659 553.579 79.8514 553.408 79.8514ZM349.793 77.0293C349.707 77.0293 349.622 77.0293 349.536 76.9438L347.399 75.5755C347.227 75.49 347.142 75.148 347.227 74.9769C347.313 74.8059 347.655 74.7204 347.826 74.8059L349.964 76.1742C350.135 76.2597 350.221 76.6017 350.135 76.7728C350.135 76.9438 349.964 77.0293 349.793 77.0293ZM344.063 73.3521C343.978 73.3521 343.892 73.3521 343.807 73.2666L341.669 71.8983C341.498 71.8128 341.412 71.4707 341.583 71.2997C341.754 71.1287 342.011 71.0432 342.182 71.2142L344.32 72.5825C344.491 72.668 344.576 73.01 344.491 73.1811C344.405 73.2666 344.234 73.3521 344.063 73.3521ZM554.606 73.1811C554.349 73.1811 554.178 72.9245 554.178 72.668C554.263 71.8128 554.349 70.9576 554.435 70.1025C554.435 69.8459 554.691 69.6749 554.862 69.6749C555.119 69.6749 555.29 69.9314 555.29 70.1025C555.204 70.9576 555.119 71.8128 555.033 72.668C555.033 73.01 554.862 73.1811 554.606 73.1811ZM338.419 69.6749C338.334 69.6749 338.248 69.6749 338.163 69.5894L336.025 68.2211C335.854 68.0501 335.768 67.7935 335.939 67.6225C336.11 67.4515 336.367 67.3659 336.538 67.537L338.676 68.9052C338.847 68.9908 338.932 69.3328 338.761 69.5039C338.676 69.5894 338.505 69.6749 338.419 69.6749ZM555.033 66.3397C554.777 66.3397 554.606 66.1687 554.606 65.9122V65.6556C554.606 64.886 554.606 64.1163 554.52 63.3467C554.52 63.0901 554.691 62.9191 554.948 62.9191C555.204 62.9191 555.375 63.0901 555.375 63.3467C555.375 64.1163 555.461 64.886 555.461 65.6556V65.9122C555.461 66.1687 555.29 66.3397 555.033 66.3397ZM332.69 65.9122C332.604 65.9122 332.519 65.9122 332.433 65.8266L330.295 64.4584C330.124 64.2873 330.039 64.0308 330.21 63.8598C330.381 63.6887 330.637 63.6032 330.808 63.7742L332.946 65.1425C333.117 65.3135 333.203 65.5701 333.032 65.7411C332.946 65.9122 332.775 65.9122 332.69 65.9122ZM326.96 62.2349C326.874 62.2349 326.789 62.2349 326.703 62.1494L324.566 60.7812C324.395 60.6101 324.309 60.3536 324.48 60.1825C324.651 60.0115 324.908 59.926 325.079 60.097L327.217 61.4653C327.388 61.6363 327.473 61.8929 327.302 62.0639C327.217 62.1494 327.131 62.2349 326.96 62.2349ZM554.691 59.5839C554.52 59.5839 554.263 59.4129 554.263 59.2418C554.178 58.3867 554.092 57.5315 553.921 56.7619C553.921 56.5053 554.007 56.3343 554.263 56.2488C554.52 56.2488 554.691 56.3343 554.777 56.5908C554.948 57.446 555.033 58.3012 555.119 59.1563C555.119 59.3274 554.948 59.4984 554.691 59.5839ZM321.316 58.4722C321.23 58.4722 321.145 58.4722 321.059 58.3867L318.921 57.0184C318.75 56.8474 318.665 56.5908 318.836 56.4198C319.007 56.2488 319.264 56.1633 319.435 56.3343L321.572 57.7025C321.743 57.8736 321.829 58.1301 321.658 58.3012C321.572 58.3867 321.401 58.4722 321.316 58.4722ZM315.586 54.7095C315.501 54.7095 315.415 54.7095 315.33 54.6239L313.192 53.2557C313.021 53.0846 312.935 52.8281 313.106 52.6571C313.277 52.486 313.534 52.4005 313.705 52.5715L315.843 53.9398C316.014 54.1108 316.099 54.3674 315.928 54.5384C315.843 54.624 315.757 54.7095 315.586 54.7095ZM553.494 52.8281C553.323 52.8281 553.152 52.6571 553.066 52.486C552.895 51.6309 552.639 50.8612 552.468 50.006C552.382 49.7495 552.553 49.5785 552.724 49.4929C552.981 49.4074 553.152 49.5785 553.237 49.7495C553.494 50.6047 553.665 51.3743 553.921 52.2295C554.007 52.486 553.836 52.6571 553.579 52.7426C553.579 52.8281 553.494 52.8281 553.494 52.8281ZM388.447 51.5453C388.361 51.5453 388.276 51.5453 388.276 51.4598C388.104 51.3743 388.019 51.1178 388.104 50.8612C388.532 50.0916 388.96 49.3219 389.387 48.6378C389.473 48.4667 389.729 48.3812 389.986 48.4667C390.157 48.5523 390.242 48.8088 390.157 49.0654C389.729 49.835 389.302 50.6047 388.874 51.2888C388.703 51.4598 388.618 51.5453 388.447 51.5453ZM309.857 50.9467C309.771 50.9467 309.686 50.9467 309.6 50.8612L307.462 49.4929C307.291 49.3219 307.206 49.0654 307.377 48.8943C307.548 48.7233 307.804 48.6378 307.975 48.8088L310.113 50.1771C310.284 50.3481 310.37 50.6047 310.199 50.7757C310.199 50.8612 310.028 50.9467 309.857 50.9467ZM304.213 47.184C304.127 47.184 304.042 47.184 303.956 47.0985L301.818 45.7302C301.647 45.5592 301.562 45.3026 301.733 45.1316C301.904 44.9606 302.16 44.875 302.331 45.0461L304.469 46.4143C304.64 46.5854 304.726 46.8419 304.555 47.013C304.469 47.0985 304.298 47.184 304.213 47.184ZM551.527 46.3288C551.356 46.3288 551.185 46.2433 551.099 46.0723C550.843 45.3026 550.501 44.533 550.159 43.6778C550.073 43.4213 550.159 43.2502 550.415 43.0792C550.672 42.9937 550.843 43.0792 551.014 43.3357C551.356 44.1054 551.698 44.9606 551.955 45.7302C552.04 45.9868 551.955 46.1578 551.698 46.2433C551.612 46.3288 551.613 46.3288 551.527 46.3288ZM392.038 45.7302C391.953 45.7302 391.867 45.7302 391.782 45.6447C391.611 45.4737 391.525 45.2171 391.696 45.0461C392.124 44.3619 392.637 43.6778 393.235 42.9937C393.406 42.8226 393.663 42.7371 393.834 42.9082C394.005 43.0792 394.091 43.3357 393.92 43.5068C393.407 44.1909 392.893 44.875 392.466 45.5592C392.295 45.6447 392.124 45.7302 392.038 45.7302ZM298.483 43.5068C298.397 43.5068 298.312 43.5068 298.226 43.4213L296.088 42.053C295.917 41.9675 295.832 41.6254 295.917 41.4544C296.003 41.2833 296.345 41.1978 296.516 41.2833L298.654 42.6516C298.825 42.7371 298.911 43.0792 298.739 43.2502C298.739 43.4213 298.568 43.5068 298.483 43.5068ZM396.143 40.3427C396.058 40.3427 395.972 40.3427 395.887 40.2571C395.715 40.0861 395.715 39.8296 395.801 39.6585C396.314 39.0599 396.913 38.3758 397.511 37.6916C397.682 37.5206 397.939 37.5206 398.11 37.6916C398.281 37.8627 398.281 38.1192 398.11 38.2903C397.511 38.9744 396.998 39.573 396.4 40.1716C396.4 40.2571 396.314 40.3427 396.143 40.3427ZM548.79 40.0861C548.619 40.0861 548.448 40.0006 548.448 39.8296C548.021 39.0599 547.679 38.2903 547.251 37.6061C547.166 37.4351 547.166 37.1785 547.422 37.0075C547.593 36.922 547.85 36.922 548.021 37.1785C548.448 37.9482 548.876 38.6323 549.218 39.402C549.304 39.573 549.218 39.8296 549.047 40.0006C548.876 40.0861 548.876 40.0861 548.79 40.0861ZM292.753 39.8296C292.668 39.8296 292.582 39.8296 292.497 39.744L290.359 38.3758C290.188 38.2903 290.102 37.9482 290.188 37.7771C290.273 37.6061 290.615 37.5206 290.786 37.6061L292.924 38.9744C293.095 39.0599 293.181 39.402 293.095 39.573C293.01 39.744 292.839 39.8296 292.753 39.8296ZM286.938 36.1523C286.853 36.1523 286.767 36.1523 286.682 36.0668C285.997 35.6392 285.228 35.1261 284.544 34.6985C284.373 34.613 284.287 34.271 284.373 34.0999C284.458 33.9289 284.8 33.8434 284.971 33.9289C285.655 34.3565 286.425 34.7841 287.109 35.2972C287.28 35.3827 287.366 35.7248 287.28 35.8958C287.195 36.1523 287.109 36.1523 286.938 36.1523ZM400.846 35.3827C400.761 35.3827 400.59 35.2972 400.504 35.2116C400.333 35.0406 400.333 34.7841 400.504 34.613C401.103 34.0144 401.702 33.4158 402.386 32.8172C402.557 32.6461 402.813 32.6461 402.984 32.8172C403.155 32.9882 403.155 33.2448 402.984 33.4158C402.386 34.0144 401.702 34.613 401.103 35.1261C401.018 35.2972 400.932 35.3827 400.846 35.3827ZM545.284 34.271C545.113 34.271 545.028 34.1854 544.942 34.0999C544.429 33.4158 544.001 32.7317 543.488 32.0475C543.317 31.8765 543.403 31.6199 543.574 31.4489C543.745 31.2779 544.001 31.3634 544.173 31.5344C544.686 32.2186 545.199 32.9027 545.712 33.5868C545.883 33.7579 545.797 34.0144 545.626 34.1854C545.455 34.271 545.37 34.271 545.284 34.271ZM281.123 32.6461C281.038 32.6461 280.952 32.6461 280.866 32.5606C280.097 32.133 279.413 31.7055 278.643 31.2779C278.472 31.1924 278.387 30.9358 278.472 30.6793C278.558 30.5082 278.814 30.4227 279.071 30.5082C279.84 30.9358 280.524 31.3634 281.294 31.791C281.465 31.8765 281.551 32.2186 281.465 32.3896C281.465 32.5606 281.294 32.6461 281.123 32.6461ZM405.892 30.8503C405.806 30.8503 405.635 30.7648 405.55 30.6793C405.379 30.5082 405.464 30.2517 405.635 30.0806C406.32 29.5675 406.918 29.0544 407.688 28.4558C407.859 28.2848 408.115 28.3703 408.286 28.5413C408.457 28.7124 408.372 28.9689 408.201 29.14C407.517 29.6531 406.833 30.1662 406.234 30.6793C406.148 30.7648 405.977 30.8503 405.892 30.8503ZM275.308 29.14C275.222 29.14 275.137 29.14 275.051 29.0544C274.282 28.6269 273.598 28.1993 272.828 27.7717C272.657 27.6862 272.571 27.4296 272.657 27.1731C272.742 27.002 272.999 26.9165 273.255 27.002C274.025 27.4296 274.709 27.8572 275.479 28.2848C275.65 28.3703 275.735 28.6269 275.65 28.8834C275.564 29.0544 275.393 29.14 275.308 29.14ZM541.094 28.8834C541.008 28.8834 540.837 28.7979 540.752 28.7124C540.153 28.1138 539.64 27.4296 539.042 26.831C538.87 26.66 538.87 26.4034 539.042 26.2324C539.213 26.0614 539.469 26.0614 539.64 26.2324C540.239 26.831 540.837 27.5151 541.436 28.1138C541.607 28.2848 541.607 28.5413 541.436 28.7124C541.265 28.8834 541.179 28.8834 541.094 28.8834ZM411.365 26.7455C411.194 26.7455 411.108 26.66 411.023 26.5745C410.852 26.4034 410.937 26.1469 411.108 25.9758C411.793 25.4627 412.477 25.0352 413.246 24.5221C413.417 24.351 413.674 24.4365 413.845 24.6076C413.931 24.7786 413.931 25.0352 413.674 25.2062C412.99 25.6338 412.22 26.1469 411.536 26.5745C411.536 26.7455 411.451 26.7455 411.365 26.7455ZM269.407 25.7193C269.322 25.7193 269.236 25.7193 269.236 25.6338C268.467 25.2062 267.782 24.7786 267.013 24.351C266.842 24.2655 266.756 24.009 266.842 23.7524C266.927 23.5814 267.184 23.4959 267.44 23.5814C268.21 24.009 268.894 24.4365 269.664 24.8641C269.835 24.9496 269.92 25.2062 269.835 25.4627C269.664 25.6338 269.493 25.7193 269.407 25.7193ZM536.305 24.0945C536.219 24.0945 536.134 24.0945 536.048 24.009C535.45 23.4103 534.766 22.8972 534.082 22.3841C533.911 22.2131 533.825 21.9566 533.996 21.7855C534.167 21.6145 534.424 21.529 534.595 21.7C535.279 22.2131 535.963 22.8117 536.562 23.3248C536.733 23.4959 536.733 23.7524 536.562 23.9234C536.476 24.009 536.39 24.0945 536.305 24.0945ZM417.095 23.1538C416.924 23.1538 416.838 23.0683 416.753 22.9828C416.667 22.8117 416.667 22.5552 416.924 22.3841C417.693 21.9566 418.377 21.529 419.147 21.1014C419.318 21.0159 419.575 21.1014 419.746 21.2724C419.831 21.4435 419.746 21.7 419.575 21.871C418.805 22.2986 418.121 22.7262 417.351 23.0683C417.266 23.0683 417.18 23.1538 417.095 23.1538ZM263.421 22.4697C263.336 22.4697 263.25 22.4697 263.25 22.3841C262.48 21.9566 261.711 21.6145 261.027 21.1869C260.856 21.1014 260.77 20.8448 260.856 20.5883C260.941 20.4173 261.198 20.3317 261.454 20.4173C262.224 20.8448 262.993 21.1869 263.763 21.6145C263.934 21.7 264.02 21.9566 263.934 22.2131C263.678 22.3841 263.507 22.4697 263.421 22.4697ZM423.166 19.9042C422.995 19.9042 422.824 19.8186 422.739 19.6476C422.653 19.4766 422.739 19.22 422.91 19.049C423.679 18.7069 424.449 18.2793 425.219 17.9373C425.39 17.8518 425.646 17.9373 425.817 18.1938C425.903 18.4504 425.817 18.6214 425.561 18.7924C424.791 19.1345 424.022 19.4766 423.252 19.9042C423.252 19.9042 423.252 19.9042 423.166 19.9042ZM530.917 19.9042C530.832 19.9042 530.746 19.9042 530.661 19.8186C529.977 19.3055 529.293 18.878 528.523 18.4504C528.352 18.3649 528.266 18.0228 528.352 17.8518C528.437 17.6807 528.78 17.5952 528.951 17.6807C529.635 18.1083 530.404 18.6214 531.088 19.049C531.259 19.22 531.345 19.4766 531.174 19.6476C531.174 19.9042 531.003 19.9042 530.917 19.9042ZM257.349 19.3055C257.264 19.3055 257.178 19.3055 257.178 19.22C256.409 18.878 255.639 18.4504 254.869 18.1083C254.698 18.0228 254.527 17.7662 254.698 17.5097C254.784 17.3387 255.04 17.1676 255.297 17.3387C256.067 17.6807 256.836 18.1083 257.606 18.4504C257.777 18.5359 257.862 18.7924 257.777 19.049C257.606 19.22 257.52 19.3055 257.349 19.3055ZM429.409 17.1676C429.238 17.1676 429.067 17.0821 428.981 16.9111C428.896 16.6545 428.981 16.4835 429.238 16.3124C430.008 15.9704 430.777 15.7138 431.633 15.3718C431.889 15.2862 432.06 15.3718 432.146 15.6283C432.231 15.8849 432.146 16.0559 431.889 16.1414C431.119 16.4835 430.264 16.74 429.495 17.0821C429.495 17.1676 429.409 17.1676 429.409 17.1676ZM525.017 16.398C524.931 16.398 524.846 16.398 524.846 16.3124C524.076 15.8849 523.306 15.5428 522.537 15.2007C522.366 15.1152 522.195 14.8587 522.366 14.6021C522.451 14.3456 522.708 14.26 522.964 14.4311C523.734 14.7731 524.504 15.2007 525.273 15.5428C525.444 15.6283 525.53 15.8849 525.444 16.1414C525.359 16.3124 525.188 16.398 525.017 16.398ZM251.192 16.398C251.107 16.398 251.107 16.398 251.021 16.398C250.251 16.0559 249.482 15.7138 248.712 15.3718C248.456 15.2862 248.37 15.0297 248.456 14.7731C248.541 14.5166 248.798 14.4311 249.054 14.5166C249.824 14.8587 250.594 15.2007 251.363 15.5428C251.62 15.6283 251.705 15.8849 251.534 16.1414C251.449 16.3124 251.363 16.398 251.192 16.398ZM435.823 14.8587C435.652 14.8587 435.481 14.7731 435.395 14.6021C435.31 14.3456 435.481 14.1745 435.652 14.089C436.421 13.8325 437.277 13.5759 438.132 13.3194C438.388 13.2338 438.559 13.4049 438.645 13.5759C438.73 13.8325 438.559 14.0035 438.388 14.089C437.533 14.3456 436.763 14.6021 435.994 14.8587C435.908 14.8587 435.823 14.8587 435.823 14.8587ZM244.864 13.7469C244.778 13.7469 244.778 13.7469 244.693 13.7469C243.923 13.4049 243.068 13.1483 242.298 12.8063C242.042 12.7207 241.956 12.4642 242.042 12.2932C242.127 12.0366 242.384 11.9511 242.555 12.0366C243.325 12.3787 244.18 12.6352 244.949 12.9773C245.206 13.0628 245.292 13.3194 245.206 13.5759C245.206 13.5759 245.035 13.7469 244.864 13.7469ZM121.891 13.6614C121.72 13.6614 121.549 13.5759 121.463 13.4049C121.378 13.1483 121.463 12.9773 121.72 12.8918C122.489 12.6352 123.259 12.3787 124.114 12.1221C124.371 12.0366 124.542 12.2076 124.627 12.3787C124.713 12.5497 124.542 12.8063 124.371 12.8918C123.516 13.1483 122.661 13.4049 121.976 13.6614C121.976 13.6614 121.976 13.6614 121.891 13.6614ZM518.86 13.6614C518.774 13.6614 518.774 13.6614 518.689 13.6614C517.919 13.3194 517.149 13.0628 516.294 12.8063C516.038 12.7207 515.952 12.4642 516.038 12.2932C516.123 12.1221 516.38 11.9511 516.551 12.0366C517.406 12.2932 518.175 12.6352 518.945 12.8918C519.202 12.9773 519.287 13.2338 519.202 13.4049C519.202 13.4904 519.031 13.6614 518.86 13.6614ZM442.322 12.8918C442.151 12.8918 441.98 12.8063 441.895 12.5497C441.809 12.2932 441.98 12.1221 442.237 12.0366C443.092 11.7801 443.861 11.609 444.717 11.438C444.973 11.3525 445.144 11.5235 445.23 11.7801C445.315 12.0366 445.144 12.2076 444.888 12.2932C444.032 12.4642 443.263 12.7207 442.408 12.8918H442.322ZM128.39 11.609C128.219 11.609 128.048 11.5235 127.963 11.267C127.877 11.0104 128.048 10.8394 128.219 10.7539C128.989 10.4973 129.844 10.3263 130.699 10.0697C130.956 9.98421 131.127 10.1552 131.212 10.3263C131.298 10.5828 131.127 10.7539 130.956 10.8394C130.1 11.0959 129.245 11.3525 128.476 11.5235C128.476 11.609 128.39 11.609 128.39 11.609ZM512.36 11.5235H512.275C511.505 11.267 510.65 11.0959 509.795 10.9249C509.538 10.8394 509.453 10.6683 509.453 10.4118C509.538 10.1552 509.709 10.0697 509.966 10.0697C510.821 10.2408 511.676 10.4973 512.446 10.6683C512.702 10.7539 512.788 10.9249 512.788 11.1814C512.702 11.3525 512.531 11.5235 512.36 11.5235ZM448.907 11.3525C448.736 11.3525 448.565 11.1814 448.479 11.0104C448.394 10.7539 448.565 10.5828 448.821 10.4973C449.677 10.3263 450.446 10.1552 451.301 9.98421C451.558 9.98421 451.729 10.0697 451.814 10.3263C451.9 10.5828 451.729 10.7539 451.472 10.8394C450.617 11.0104 449.762 11.1814 448.992 11.3525C448.992 11.3525 448.992 11.3525 448.907 11.3525ZM238.536 11.3525C238.45 11.3525 238.45 11.3525 238.365 11.3525C237.595 11.0959 236.74 10.8394 235.97 10.5828C235.714 10.4973 235.628 10.2408 235.714 10.0697C235.799 9.81318 236.056 9.72766 236.227 9.81318C236.996 10.0697 237.852 10.3263 238.707 10.5828C238.963 10.6683 239.049 10.9249 238.963 11.0959C238.878 11.267 238.707 11.3525 238.536 11.3525ZM455.663 10.1552C455.492 10.1552 455.235 9.98421 455.235 9.81318C455.235 9.55663 455.321 9.38559 455.577 9.30008C456.432 9.12904 457.288 9.04353 458.143 8.95801C458.399 8.95801 458.57 9.12904 458.656 9.30008C458.656 9.55663 458.485 9.72766 458.314 9.81318C457.373 9.89869 456.518 10.0697 455.663 10.1552ZM505.776 9.98421C505.69 9.98421 505.69 9.98421 505.776 9.98421C504.835 9.81318 504.065 9.72766 503.21 9.55663C502.953 9.55663 502.782 9.30008 502.868 9.04353C502.868 8.78698 503.124 8.61594 503.381 8.70146C504.236 8.78698 505.091 8.95801 505.947 9.12904C506.203 9.12904 506.374 9.38559 506.289 9.64214C506.118 9.89869 505.947 9.98421 505.776 9.98421ZM134.975 9.81318C134.804 9.81318 134.633 9.64214 134.547 9.47111C134.462 9.21456 134.633 9.04353 134.889 8.95801C135.659 8.78698 136.514 8.53043 137.369 8.35939C137.626 8.27388 137.797 8.44491 137.882 8.70146C137.968 8.95801 137.797 9.12904 137.54 9.21456C136.685 9.38559 135.83 9.64214 135.06 9.81318H134.975ZM232.036 9.38559H231.951C231.181 9.21456 230.326 8.95801 229.556 8.78698V8.35939L229.642 7.93181L229.556 8.35939L229.727 7.93181C230.497 8.10284 231.352 8.35939 232.122 8.53043C232.378 8.61594 232.464 8.78698 232.464 9.04353C232.378 9.21456 232.207 9.38559 232.036 9.38559ZM462.419 9.30008C462.162 9.30008 461.991 9.12904 461.991 8.95801C461.991 8.70146 462.162 8.53043 462.333 8.44491C463.188 8.35939 464.043 8.27388 464.898 8.18836C465.155 8.18836 465.326 8.35939 465.326 8.61594C465.326 8.87249 465.155 9.04353 464.898 9.04353C464.129 9.12904 463.274 9.21456 462.419 9.30008ZM499.02 9.12904C498.934 9.12904 498.934 9.12904 499.02 9.12904V8.70146L498.934 9.12904C498.079 9.04353 497.309 8.95801 496.454 8.95801C496.198 8.95801 496.027 8.70146 496.027 8.53043C496.027 8.35939 496.283 8.10284 496.454 8.10284C497.309 8.18836 498.079 8.18836 498.934 8.27388C499.191 8.27388 499.362 8.53043 499.362 8.70146C499.362 8.95801 499.191 9.12904 499.02 9.12904ZM469.174 8.70146C468.918 8.70146 468.747 8.53043 468.747 8.27388C468.747 8.01733 468.918 7.84629 469.174 7.84629C470.029 7.76078 470.885 7.76078 471.74 7.67526C471.996 7.67526 472.167 7.84629 472.167 8.10284C472.167 8.35939 471.996 8.53043 471.74 8.53043C470.885 8.61594 470.029 8.61594 469.174 8.70146ZM492.178 8.61594C491.323 8.53043 490.468 8.53043 489.613 8.53043C489.356 8.53043 489.185 8.35939 489.185 8.10284C489.185 7.84629 489.356 7.67526 489.613 7.67526C490.468 7.67526 491.323 7.76078 492.178 7.76078C492.435 7.76078 492.606 8.01733 492.606 8.18836C492.606 8.44491 492.435 8.61594 492.178 8.61594ZM476.016 8.35939C475.759 8.35939 475.588 8.18836 475.588 7.93181C475.588 7.67526 475.759 7.50423 476.016 7.50423C476.871 7.50423 477.726 7.50423 478.581 7.41871C478.838 7.41871 479.009 7.58974 479.009 7.84629C479.009 8.10284 478.838 8.27388 478.581 8.27388C477.726 8.35939 476.871 8.35939 476.016 8.35939ZM485.337 8.35939C484.482 8.35939 483.627 8.35939 482.772 8.27388C482.515 8.27388 482.344 8.10284 482.344 7.84629C482.344 7.58974 482.515 7.41871 482.772 7.41871C483.627 7.41871 484.482 7.41871 485.337 7.50423C485.594 7.50423 485.765 7.67526 485.765 7.93181C485.765 8.18836 485.594 8.35939 485.337 8.35939ZM141.56 8.27388C141.389 8.27388 141.218 8.10284 141.132 7.93181C141.047 7.67526 141.218 7.50423 141.474 7.41871C142.329 7.24768 143.099 7.07664 143.954 6.90561C144.211 6.82009 144.382 6.99113 144.467 7.24768C144.553 7.50423 144.382 7.67526 144.125 7.76078C143.27 7.93181 142.415 8.10284 141.645 8.27388C141.645 8.27388 141.645 8.27388 141.56 8.27388ZM225.366 7.84629H225.281C224.425 7.67526 223.57 7.50423 222.801 7.33319C222.544 7.24768 222.459 7.07664 222.459 6.82009C222.544 6.56354 222.715 6.47802 222.972 6.47802C223.827 6.64906 224.682 6.82009 225.452 6.99113C225.708 7.07664 225.794 7.24768 225.794 7.50423C225.708 7.67526 225.537 7.84629 225.366 7.84629ZM148.316 6.90561C148.145 6.90561 147.973 6.73458 147.888 6.56354C147.888 6.30699 147.973 6.13596 148.23 6.05044C149.085 5.87941 149.94 5.79389 150.796 5.62286C151.052 5.62286 151.223 5.70837 151.309 5.96492C151.309 6.22147 151.223 6.39251 150.967 6.47802C150.026 6.64906 149.171 6.82009 148.316 6.90561ZM218.696 6.56354C218.61 6.56354 218.61 6.56354 218.696 6.56354C217.755 6.39251 216.9 6.30699 216.13 6.13596C215.874 6.13596 215.703 5.87941 215.788 5.62286C215.788 5.36631 216.045 5.19527 216.301 5.28079C217.157 5.45182 218.012 5.53734 218.867 5.70837C219.123 5.70837 219.294 5.96492 219.209 6.22147C219.038 6.47802 218.867 6.56354 218.696 6.56354ZM154.986 5.87941C154.815 5.87941 154.558 5.70837 154.558 5.53734C154.558 5.28079 154.644 5.10976 154.9 5.02424C155.755 4.93872 156.611 4.76769 157.466 4.68217C157.722 4.68217 157.893 4.85321 157.979 5.02424C158.064 5.19527 157.808 5.45182 157.637 5.53734C156.782 5.62286 155.927 5.70837 154.986 5.87941C155.071 5.87941 155.071 5.87941 154.986 5.87941ZM211.94 5.53734C211.94 5.53734 211.854 5.53734 211.94 5.53734C210.999 5.45182 210.23 5.28079 209.374 5.19527C209.118 5.19527 208.947 4.93872 209.032 4.68217C209.118 4.42562 209.289 4.25459 209.546 4.34011C210.401 4.42562 211.256 4.51114 212.111 4.68217C212.368 4.68217 212.539 4.93872 212.453 5.19527C212.282 5.36631 212.111 5.53734 211.94 5.53734ZM161.742 5.02424C161.485 5.02424 161.314 4.85321 161.314 4.68217C161.314 4.42562 161.485 4.25459 161.656 4.16907C162.511 4.08356 163.366 3.99804 164.222 3.91252C164.478 3.91252 164.649 4.08356 164.649 4.25459C164.649 4.51114 164.478 4.68217 164.307 4.68217C163.538 4.76769 162.682 4.85321 161.742 5.02424C161.827 5.02424 161.827 5.02424 161.742 5.02424ZM205.184 4.76769C205.099 4.76769 205.099 4.76769 205.184 4.76769C204.329 4.68217 203.474 4.59666 202.619 4.51114C202.362 4.51114 202.191 4.25459 202.191 4.08356C202.191 3.82701 202.448 3.65597 202.619 3.65597C203.474 3.74149 204.329 3.82701 205.184 3.91252C205.441 3.91252 205.612 4.16907 205.526 4.34011C205.526 4.59666 205.355 4.76769 205.184 4.76769ZM168.583 4.34011C168.326 4.34011 168.155 4.16907 168.155 3.91252C168.155 3.65597 168.326 3.48494 168.583 3.48494C169.438 3.39942 170.293 3.39942 171.149 3.31391C171.405 3.31391 171.576 3.48494 171.576 3.74149C171.576 3.99804 171.405 4.16907 171.149 4.16907C170.293 4.16907 169.438 4.25459 168.583 4.34011ZM198.343 4.16907C197.488 4.08356 196.632 4.08356 195.777 3.99804C195.521 3.99804 195.35 3.74149 195.35 3.57046C195.35 3.31391 195.521 3.14287 195.777 3.14287C196.632 3.22839 197.488 3.22839 198.343 3.31391C198.599 3.31391 198.77 3.57046 198.77 3.74149C198.77 3.99804 198.599 4.16907 198.343 4.16907ZM175.339 3.91252C175.082 3.91252 174.911 3.74149 174.911 3.48494C174.911 3.22839 175.082 3.05736 175.339 3.05736C176.194 3.05736 177.049 2.97184 177.904 2.97184C178.075 2.97184 178.332 3.14287 178.332 3.39942C178.332 3.65597 178.161 3.82701 177.904 3.82701C177.049 3.82701 176.194 3.91252 175.339 3.91252ZM191.587 3.82701C191.587 3.82701 191.501 3.82701 191.587 3.82701C190.732 3.82701 189.877 3.74149 189.022 3.74149C188.765 3.74149 188.594 3.57046 188.594 3.31391C188.594 3.05736 188.765 2.88632 189.022 2.88632C189.877 2.88632 190.732 2.88632 191.587 2.97184C191.844 2.97184 192.015 3.14287 192.015 3.39942C191.929 3.65597 191.758 3.82701 191.587 3.82701ZM182.18 3.74149C181.924 3.74149 181.753 3.57046 181.753 3.31391C181.753 3.05736 181.924 2.88632 182.18 2.88632C183.035 2.88632 183.805 2.88632 184.66 2.88632H184.746C185.002 2.88632 185.173 3.05736 185.173 3.31391C185.173 3.57046 185.002 3.74149 184.746 3.74149H184.66C183.805 3.74149 183.035 3.74149 182.18 3.74149Z" fill="black"/>
                        <path opacity="0.3" d="M386.053 56.6764C385.967 56.6764 385.967 56.6764 385.882 56.6764C385.625 56.5909 385.54 56.3343 385.625 56.1633C385.625 56.1633 385.796 55.7357 386.138 54.9661C386.224 54.7095 386.48 54.624 386.737 54.7095C386.993 54.795 387.079 55.0516 386.993 55.3081C386.651 56.0778 386.566 56.5054 386.566 56.5054C386.395 56.5909 386.224 56.6764 386.053 56.6764Z" fill="black"/>
                        </g>
                        <g opacity="0.3">
                        <path opacity="0.3" d="M389.815 351.88C389.729 351.88 389.644 351.88 389.644 351.795L384.598 349.144L379.553 351.795C379.382 351.88 379.211 351.88 379.125 351.795C378.954 351.709 378.954 351.538 378.954 351.367L379.895 345.723L375.79 341.704C375.705 341.618 375.619 341.447 375.705 341.276C375.79 341.105 375.876 341.02 376.047 341.02L381.691 340.164L384.256 335.033C384.342 334.862 384.513 334.777 384.598 334.777C384.769 334.777 384.94 334.862 384.94 335.033L387.506 340.164L393.15 341.02C393.321 341.02 393.407 341.191 393.492 341.276C393.578 341.447 393.492 341.618 393.407 341.704L389.302 345.723L390.242 351.367C390.242 351.538 390.242 351.709 390.071 351.795C389.986 351.88 389.9 351.88 389.815 351.88ZM376.987 341.789L380.579 345.295C380.665 345.381 380.75 345.552 380.665 345.637L379.809 350.597L384.256 348.203C384.342 348.117 384.513 348.117 384.684 348.203L389.131 350.597L388.276 345.637C388.276 345.466 388.276 345.381 388.361 345.295L391.953 341.789L386.907 341.02C386.736 341.02 386.651 340.934 386.565 340.763L384.342 336.231L382.118 340.763C382.033 340.848 381.947 340.934 381.776 341.02L376.987 341.789Z" fill="black"/>
                        <path opacity="0.3" d="M404.438 351.88C404.352 351.88 404.267 351.88 404.181 351.794C404.01 351.709 404.01 351.538 404.01 351.367L404.951 345.723L400.846 341.703C400.76 341.618 400.675 341.447 400.76 341.276C400.846 341.105 400.931 341.019 401.102 341.019L406.747 340.164L409.312 335.033C409.483 334.777 409.911 334.777 410.082 335.033L412.647 340.164L418.291 341.019C418.462 341.019 418.548 341.19 418.633 341.276C418.719 341.447 418.633 341.618 418.548 341.703L414.443 345.723L415.384 351.367C415.384 351.538 415.384 351.709 415.213 351.794C415.042 351.88 414.871 351.88 414.785 351.794L409.74 349.143L404.694 351.794C404.609 351.88 404.523 351.88 404.438 351.88ZM409.654 348.288C409.74 348.288 409.825 348.288 409.825 348.374L414.272 350.768L413.417 345.808C413.417 345.637 413.417 345.552 413.502 345.466L417.094 341.96L412.049 341.19C411.878 341.19 411.792 341.105 411.706 340.934L409.483 336.401L407.26 340.934C407.174 341.019 407.089 341.105 406.918 341.19L401.872 341.96L405.464 345.466C405.549 345.552 405.635 345.723 405.549 345.808L404.694 350.768L409.141 348.374C409.569 348.288 409.654 348.288 409.654 348.288Z" fill="black"/>
                        <path opacity="0.3" d="M429.58 351.88C429.495 351.88 429.409 351.88 429.324 351.794C429.153 351.709 429.153 351.538 429.153 351.367L430.093 345.723L425.989 341.703C425.903 341.618 425.817 341.447 425.903 341.276C425.989 341.105 426.074 341.019 426.245 341.019L431.889 340.164L434.455 335.033C434.626 334.777 435.053 334.777 435.224 335.033L437.79 340.164L443.434 341.019C443.605 341.019 443.691 341.19 443.776 341.276C443.862 341.447 443.776 341.618 443.69 341.703L439.586 345.723L440.526 351.367C440.526 351.538 440.526 351.709 440.355 351.794C440.184 351.88 440.013 351.88 439.928 351.794L434.882 349.143L429.837 351.794C429.751 351.88 429.666 351.88 429.58 351.88ZM434.797 348.288C434.882 348.288 434.968 348.288 434.968 348.374L439.415 350.768L438.559 345.808C438.559 345.637 438.56 345.552 438.645 345.466L442.237 341.96L437.191 341.19C437.02 341.19 436.935 341.105 436.849 340.934L434.626 336.401L432.402 340.934C432.317 341.019 432.231 341.105 432.06 341.19L427.015 341.96L430.606 345.466C430.692 345.552 430.777 345.723 430.692 345.808L429.837 350.768L434.284 348.374C434.711 348.288 434.797 348.288 434.797 348.288Z" fill="black"/>
                        <path opacity="0.3" d="M465.24 351.88C465.155 351.88 465.069 351.88 465.069 351.794L460.024 349.143L454.978 351.794C454.807 351.88 454.636 351.88 454.551 351.794C454.38 351.709 454.38 351.538 454.38 351.367L455.32 345.723L451.216 341.703C451.13 341.618 451.045 341.447 451.13 341.276C451.216 341.105 451.301 341.019 451.472 341.019L457.116 340.164L459.682 335.033C459.853 334.777 460.28 334.777 460.451 335.033L463.017 340.164L468.661 341.019C468.832 341.019 468.918 341.19 469.003 341.276C469.089 341.447 469.003 341.618 468.918 341.703L464.813 345.723L465.753 351.367C465.753 351.538 465.754 351.709 465.582 351.794C465.411 351.88 465.326 351.88 465.24 351.88ZM459.938 348.288C460.024 348.288 460.109 348.288 460.109 348.374L464.556 350.768L463.701 345.808C463.701 345.637 463.701 345.552 463.787 345.466L467.378 341.96L462.333 341.19C462.162 341.19 462.076 341.105 461.991 340.934L459.767 336.401L457.544 340.934C457.458 341.019 457.373 341.105 457.202 341.19L452.156 341.96L455.748 345.466C455.834 345.552 455.919 345.723 455.834 345.808L454.978 350.768L459.425 348.374C459.853 348.288 459.853 348.288 459.938 348.288Z" fill="black"/>
                        <path opacity="0.3" d="M490.382 351.88C490.296 351.88 490.211 351.88 490.211 351.794L485.165 349.143L480.12 351.794C479.949 351.88 479.778 351.88 479.692 351.794C479.521 351.709 479.521 351.538 479.521 351.367L480.462 345.723L476.357 341.703C476.272 341.618 476.186 341.447 476.272 341.276C476.357 341.105 476.443 341.019 476.614 341.019L482.258 340.164L484.823 335.033C484.994 334.777 485.422 334.777 485.593 335.033L488.158 340.164L493.803 341.019C493.974 341.019 494.059 341.19 494.145 341.276C494.23 341.447 494.145 341.618 494.059 341.703L489.954 345.723L490.895 351.367C490.895 351.538 490.895 351.709 490.724 351.794C490.553 351.88 490.467 351.88 490.382 351.88ZM485.08 348.288C485.165 348.288 485.251 348.288 485.251 348.374L489.698 350.768L488.842 345.808C488.842 345.637 488.843 345.552 488.928 345.466L492.52 341.96L487.474 341.19C487.303 341.19 487.218 341.105 487.132 340.934L484.909 336.401L482.685 340.934C482.6 341.019 482.514 341.105 482.343 341.19L477.298 341.96L480.889 345.466C480.975 345.552 481.061 345.723 480.975 345.808L480.12 350.768L484.567 348.374C484.994 348.288 484.994 348.288 485.08 348.288Z" fill="black"/>
                        </g>
                        <g opacity="0.3">
                        <path opacity="0.3" d="M589.155 48.21H530.661C530.405 48.21 530.234 48.039 530.234 47.7824V3.65579C530.234 3.39924 530.405 3.22821 530.661 3.22821H589.155C589.411 3.22821 589.583 3.39924 589.583 3.65579V47.868C589.583 48.039 589.326 48.21 589.155 48.21ZM531.089 47.3548H588.727V4.08338H531.089V47.3548Z" fill="black"/>
                        <path opacity="0.3" d="M589.155 10.9247H530.661C530.405 10.9247 530.234 10.7537 530.234 10.4971V3.65579C530.234 3.39924 530.405 3.22821 530.661 3.22821H589.155C589.411 3.22821 589.583 3.39924 589.583 3.65579V10.5827C589.583 10.7537 589.326 10.9247 589.155 10.9247ZM531.089 10.0695H588.727V4.08338H531.089V10.0695Z" fill="black"/>
                        <g opacity="0.3">
                        <path opacity="0.3" d="M547.338 28.0278C544.089 28.0278 541.352 25.3768 541.352 22.0417C541.352 18.7065 544.003 16.0555 547.338 16.0555C550.673 16.0555 553.324 18.7065 553.324 22.0417C553.324 25.3768 550.673 28.0278 547.338 28.0278ZM547.338 16.9107C544.516 16.9107 542.207 19.2196 542.207 22.0417C542.207 24.8637 544.516 27.1727 547.338 27.1727C550.16 27.1727 552.469 24.8637 552.469 22.0417C552.469 19.2196 550.16 16.9107 547.338 16.9107Z" fill="black"/>
                        <path opacity="0.3" d="M555.889 43.6774H538.871C538.615 43.6774 538.444 43.5064 538.444 43.2498V37.9478C538.444 33.7575 541.865 30.4223 545.969 30.4223H548.706C552.896 30.4223 556.231 33.843 556.231 37.9478V43.2498C556.317 43.4208 556.146 43.6774 555.889 43.6774ZM539.299 42.8222H555.462V37.9478C555.462 34.2706 552.469 31.2775 548.791 31.2775H546.055C542.378 31.2775 539.385 34.2706 539.385 37.9478V42.8222H539.299Z" fill="black"/>
                        </g>
                        <path opacity="0.3" d="M585.478 20.6736H564.269C564.013 20.6736 563.842 20.5025 563.842 20.246C563.842 19.9894 564.013 19.8184 564.269 19.8184H585.478C585.734 19.8184 585.905 19.9894 585.905 20.246C585.905 20.5025 585.649 20.6736 585.478 20.6736Z" fill="black"/>
                        <path opacity="0.3" d="M585.478 26.5744H564.269C564.013 26.5744 563.842 26.4034 563.842 26.1469C563.842 25.8903 564.013 25.7193 564.269 25.7193H585.478C585.734 25.7193 585.905 25.8903 585.905 26.1469C585.905 26.4034 585.649 26.5744 585.478 26.5744Z" fill="black"/>
                        <path opacity="0.3" d="M585.478 32.5604H564.269C564.013 32.5604 563.842 32.3893 563.842 32.1328C563.842 31.8762 564.013 31.7052 564.269 31.7052H585.478C585.734 31.7052 585.905 31.8762 585.905 32.1328C585.905 32.3893 585.649 32.5604 585.478 32.5604Z" fill="black"/>
                        <path opacity="0.3" d="M585.478 38.5466H564.269C564.013 38.5466 563.842 38.3755 563.842 38.119C563.842 37.8624 564.013 37.6914 564.269 37.6914H585.478C585.734 37.6914 585.905 37.8624 585.905 38.119C585.905 38.3755 585.649 38.5466 585.478 38.5466Z" fill="black"/>
                        </g>
                        <g opacity="0.3">
                        <path opacity="0.3" d="M34.5791 297.834H2.9379C2.68135 297.834 2.51031 297.663 2.51031 297.406V253.792C2.51031 253.536 2.68135 253.365 2.9379 253.365H29.7046C29.8757 253.365 29.9612 253.45 30.0467 253.536L34.9212 260.206C35.0067 260.292 35.0067 260.377 35.0067 260.463V297.406C35.0067 297.663 34.8356 297.834 34.5791 297.834ZM3.36548 296.978H34.1515V260.548L29.4481 254.22H3.36548V296.978Z" fill="black"/>
                        <path opacity="0.3" d="M34.5793 260.805H29.7048C29.4483 260.805 29.2772 260.634 29.2772 260.377V253.707C29.2772 253.45 29.4483 253.279 29.7048 253.279C29.9614 253.279 30.1324 253.45 30.1324 253.707V259.95H34.5793C34.8358 259.95 35.0068 260.121 35.0068 260.377C35.0068 260.634 34.8358 260.805 34.5793 260.805Z" fill="black"/>
                        <path opacity="0.3" d="M27.5664 266.278H10.463C10.2065 266.278 10.0355 266.107 10.0355 265.85C10.0355 265.594 10.2065 265.423 10.463 265.423H27.4809C27.7374 265.423 27.9085 265.594 27.9085 265.85C27.9085 266.107 27.7374 266.278 27.5664 266.278Z" fill="black"/>
                        <path opacity="0.3" d="M27.5664 272.777H10.463C10.2065 272.777 10.0355 272.606 10.0355 272.35C10.0355 272.093 10.2065 271.922 10.463 271.922H27.4809C27.7374 271.922 27.9085 272.093 27.9085 272.35C27.9085 272.606 27.7374 272.777 27.5664 272.777Z" fill="black"/>
                        <path opacity="0.3" d="M27.5664 279.362H10.463C10.2065 279.362 10.0355 279.191 10.0355 278.934C10.0355 278.678 10.2065 278.507 10.463 278.507H27.4809C27.7374 278.507 27.9085 278.678 27.9085 278.934C27.9085 279.191 27.7374 279.362 27.5664 279.362Z" fill="black"/>
                        <path opacity="0.3" d="M27.5664 285.861H10.463C10.2065 285.861 10.0355 285.69 10.0355 285.434C10.0355 285.177 10.2065 285.006 10.463 285.006H27.4809C27.7374 285.006 27.9085 285.177 27.9085 285.434C27.9085 285.69 27.7374 285.861 27.5664 285.861Z" fill="black"/>
                        </g>
                        <g opacity="0.3">
                        <g opacity="0.3">
                        <path opacity="0.3" d="M99.1546 0.476679L37.3745 31.4255L56.028 68.6617L117.808 37.7129L99.1546 0.476679Z" fill="white"/>
                        <path opacity="0.3" d="M55.9582 69.0762C55.7871 69.0762 55.6161 68.9907 55.6161 68.8196L36.9734 31.6199C36.8879 31.5344 36.8879 31.3633 36.9734 31.2778C36.9734 31.1923 37.059 31.1068 37.23 31.0213L99.0586 0.0641986C99.1441 -0.0213181 99.3151 -0.0213181 99.4007 0.0641986C99.4862 0.0641986 99.5717 0.149715 99.6572 0.320749L118.3 37.5205C118.385 37.6916 118.3 37.9481 118.129 38.1191L56.2147 69.0762C56.1292 69.0762 56.0437 69.0762 55.9582 69.0762ZM37.9141 31.6199L56.1292 68.05L117.188 37.5205L98.9731 1.0904L37.9141 31.6199Z" fill="black"/>
                        </g>
                        <path opacity="0.3" d="M80.3305 40.5135C80.3305 40.5135 80.245 40.5135 80.3305 40.5135L37.3156 31.8764C37.059 31.7908 36.9735 31.6198 36.9735 31.3633C37.059 31.1067 37.2301 31.0212 37.4866 31.0212L80.1595 39.5729L98.8876 0.320674C98.9731 0.149641 99.2297 -0.0213927 99.4862 0.149641C99.6573 0.235158 99.8283 0.491708 99.6573 0.748258L80.6726 40.257C80.6726 40.428 80.5015 40.5135 80.3305 40.5135Z" fill="black"/>
                        <path opacity="0.3" d="M55.9583 69.0763C55.8727 69.0763 55.8727 69.0763 55.7872 69.0763C55.6162 68.9908 55.5307 68.7343 55.6162 68.4777L67.9306 37.6917C68.0161 37.4351 68.2727 37.3496 68.4437 37.4351C68.7003 37.5206 68.7858 37.7772 68.7003 37.9482L56.3858 68.7343C56.3003 68.9908 56.1293 69.0763 55.9583 69.0763Z" fill="black"/>
                        <path opacity="0.3" d="M117.786 38.1195C117.786 38.1195 117.701 38.1195 117.615 38.1195L86.5728 28.285C86.3162 28.1995 86.2307 27.943 86.3162 27.7719C86.4018 27.5154 86.6583 27.4299 86.8293 27.5154L117.957 37.3498C118.214 37.4353 118.3 37.6919 118.214 37.8629C118.128 38.034 117.957 38.1195 117.786 38.1195Z" fill="black"/>
                        </g>
                        <path d="M589.583 361.971H512.618C512.361 361.971 512.19 361.8 512.19 361.544C512.19 361.287 512.361 361.116 512.618 361.116H589.583C589.839 361.116 590.01 361.287 590.01 361.544C590.01 361.8 589.839 361.971 589.583 361.971Z" fill="#263238"/>
                        <path d="M503.211 361.971H131.213C130.957 361.971 130.786 361.8 130.786 361.544C130.786 361.287 130.957 361.116 131.213 361.116H503.211C503.468 361.116 503.639 361.287 503.639 361.544C503.639 361.8 503.468 361.971 503.211 361.971Z" fill="#263238"/>
                        <path d="M123.517 361.971H14.0551C13.7986 361.971 13.6276 361.8 13.6276 361.544C13.6276 361.287 13.7986 361.116 14.0551 361.116H123.517C123.773 361.116 123.944 361.287 123.944 361.544C123.944 361.8 123.773 361.971 123.517 361.971Z" fill="#263238"/>
                        <path d="M303.957 381.213C460.759 381.213 587.872 378.533 587.872 375.226C587.872 371.92 460.759 369.24 303.957 369.24C147.154 369.24 20.0411 371.92 20.0411 375.226C20.0411 378.533 147.154 381.213 303.957 381.213Z" fill="#CCCCCC"/>
                        <path d="M504.324 253.108C504.324 253.108 526.9 270.981 537.675 289.624C548.45 308.267 548.108 320.923 548.108 320.923C548.108 320.923 516.296 298.176 509.113 282.783C501.929 267.475 504.324 253.108 504.324 253.108Z" fill="#9AA3C0"/>
                        <path d="M599.589 228.138C599.589 228.138 604.549 260.292 592.662 280.046C580.86 299.801 548.278 320.41 548.278 320.41C548.278 320.41 543.575 305.958 560.678 284.066C577.782 262.173 599.589 228.138 599.589 228.138Z" fill="#9AA3C0"/>
                        <path d="M546.654 284.835C546.654 284.835 546.996 260.121 562.303 234.637C577.611 209.153 596.082 183.327 600.358 172.381C604.72 161.435 607.285 149.035 607.285 149.035C607.285 149.035 613.699 170.243 601.727 198.463C589.84 226.598 546.654 284.835 546.654 284.835Z" fill="#9AA3C0"/>
                        <path d="M547.766 274.659C547.766 274.659 529.636 251.569 517.151 225.23C504.665 198.891 506.632 171.525 506.632 171.525C506.632 171.525 530.149 201.969 537.589 225.743C545.115 249.602 547.766 274.659 547.766 274.659Z" fill="#9AA3C0"/>
                        <path d="M551.358 222.579C551.358 222.579 555.634 184.695 565.81 163.658C575.987 142.621 596.939 110.21 596.939 110.21C596.939 110.21 599.504 146.555 583.085 175.545C566.666 204.535 551.358 222.579 551.358 222.579Z" fill="#9AA3C0"/>
                        <path d="M552.213 200.858C552.213 200.858 531.005 169.216 525.19 146.554C519.375 123.892 514.329 85.6665 514.329 85.6665C514.329 85.6665 539.813 111.749 546.056 144.502C552.213 177.169 552.213 200.858 552.213 200.858Z" fill="#9AA3C0"/>
                        <path d="M541.695 64.2876C541.695 64.2876 561.62 78.9965 558.456 109.868C555.292 140.74 552.299 151.173 552.299 151.173C555.463 130.05 541.695 64.2876 541.695 64.2876Z" fill="#9AA3C0"/>
                        <path d="M548.451 330.928C548.365 330.757 546.569 325.541 546.569 288.683C546.569 269.955 547.852 256.785 549.049 243.958C550.246 231.387 551.444 218.303 551.444 200.088C551.444 163.829 553.838 129.537 553.924 129.194L554.522 129.28C554.522 129.622 552.042 163.914 552.042 200.088C552.042 218.388 550.845 231.387 549.648 243.958C548.451 256.7 547.168 269.87 547.168 288.598C547.168 325.113 548.878 330.415 548.964 330.586L548.451 330.928Z" fill="#263238"/>
                        <path d="M551.785 219.072L551.187 218.816C551.358 218.559 564.527 190.082 570.086 179.478C575.217 169.644 581.203 153.652 581.289 153.481L581.887 153.738C581.802 153.909 575.815 169.986 570.599 179.82C565.126 190.339 551.956 218.816 551.785 219.072Z" fill="#263238"/>
                        <path d="M546.911 285.006L546.398 284.664C549.733 279.875 568.547 245.241 576.5 230.532L577.098 230.874C569.145 245.497 550.246 280.217 546.911 285.006Z" fill="#263238"/>
                        <path d="M580.355 223.408L578.044 227.7L578.572 227.984L580.883 223.692L580.355 223.408Z" fill="#263238"/>
                        <path d="M526.986 223.434L522.624 212.915L523.223 212.744L527.584 223.177L526.986 223.434Z" fill="#263238"/>
                        <path d="M546.653 270.126L528.951 228.137L529.55 227.881L547.252 269.869L546.653 270.126Z" fill="#263238"/>
                        <path d="M532.715 302.109C528.268 296.636 524.505 291.505 521.598 287.058L522.111 286.716C525.018 291.163 528.781 296.209 533.228 301.682L532.715 302.109Z" fill="#263238"/>
                        <path d="M546.911 318.528L546.654 318.272C546.569 318.186 541.951 313.312 536.307 306.47L536.82 306.043C541.78 311.944 545.97 316.476 546.911 317.588C548.706 315.706 560.508 303.306 568.632 293.557L569.145 293.985C560.422 304.504 547.338 318.186 547.167 318.357L546.911 318.528Z" fill="#263238"/>
                        <path d="M572.481 289.624L571.968 289.196C573.421 287.315 574.448 285.776 575.217 284.578L575.73 284.92C575.046 286.203 573.934 287.828 572.481 289.624Z" fill="#263238"/>
                        <path d="M536.948 145.337L536.374 145.507L539.36 155.593L539.934 155.423L536.948 145.337Z" fill="#263238"/>
                        <path d="M541.522 160.71L540.948 160.88L551.19 195.485L551.764 195.315L541.522 160.71Z" fill="#263238"/>
                        <path d="M522.453 312.97H575.73V332.041H570.685L564.271 373.858H533.998L527.499 332.041H522.453V312.97Z" fill="#263238"/>
                        <path d="M289.332 316.305C289.332 316.305 298.568 355.985 294.549 362.57C289.332 371.122 233.319 376.253 233.319 376.253H356.805C356.805 376.253 372.284 371.891 367.666 359.491C364.074 349.828 346.8 316.305 346.8 316.305H289.332Z" fill="white"/>
                        <path d="M356.72 376.595H233.32C233.063 376.595 232.892 376.424 232.892 376.167C232.892 375.91 233.063 375.739 233.32 375.739C233.918 375.654 289.162 370.523 294.208 362.228C298.056 355.9 288.991 316.733 288.906 316.305C288.906 316.22 288.906 316.049 288.991 315.963C289.077 315.878 289.162 315.792 289.333 315.792H346.715C346.886 315.792 347.057 315.878 347.057 316.049C347.228 316.391 364.417 349.742 367.923 359.235C369.206 362.655 369.12 365.734 367.752 368.47C364.844 374.286 357.148 376.424 356.891 376.509C356.806 376.595 356.806 376.595 356.72 376.595ZM241.444 375.739H356.635C357.319 375.568 364.331 373.345 366.982 368.128C368.265 365.563 368.351 362.655 367.153 359.577C363.733 350.512 347.998 319.726 346.458 316.733H289.846C290.958 321.693 298.74 356.498 294.892 362.741C290.787 369.411 257.35 373.944 241.444 375.739Z" fill="#263238"/>
                        <path d="M286.596 316.305C286.596 316.305 296.43 356.327 291.812 362.57C287.195 368.727 233.319 373.516 233.319 373.516H357.318C357.318 373.516 367.751 369.326 364.844 359.491C361.936 349.657 343.978 316.305 343.978 316.305H286.596Z" fill="white"/>
                        <path d="M357.319 373.858H233.32C233.063 373.858 232.892 373.687 232.892 373.43C232.892 373.174 233.063 373.003 233.32 373.003C251.877 371.378 287.965 367.017 291.557 362.228C296.004 356.242 286.34 316.733 286.255 316.305C286.255 316.22 286.255 316.049 286.34 315.963C286.426 315.878 286.511 315.792 286.682 315.792H344.064C344.235 315.792 344.406 315.878 344.406 316.049C345.176 317.417 362.45 349.571 365.272 359.235C366.811 364.537 364.588 368.214 362.45 370.352C360.141 372.661 357.576 373.773 357.49 373.773C357.405 373.858 357.319 373.858 357.319 373.858ZM242.042 373.003H357.234C357.661 372.832 359.97 371.806 361.851 369.753C364.673 366.846 365.529 363.425 364.417 359.491C361.68 350.255 345.261 319.555 343.722 316.647H287.11C288.307 321.607 296.602 356.755 292.155 362.741C288.564 367.53 257.521 371.378 242.042 373.003Z" fill="#263238"/>
                        <path d="M343.977 316.305H286.595C286.595 316.305 292.41 339.994 293.009 353.762H362.705C357.061 340.507 343.977 316.305 343.977 316.305Z" fill="#263238"/>
                        <path d="M362.705 354.189H293.009C292.753 354.189 292.581 354.018 292.581 353.762C291.983 340.25 286.253 316.562 286.168 316.391C286.168 316.305 286.168 316.134 286.253 316.049C286.339 315.963 286.424 315.878 286.595 315.878H343.977C344.148 315.878 344.319 315.963 344.319 316.134C344.49 316.391 357.489 340.592 363.047 353.676C363.133 353.847 363.047 353.933 363.047 354.104C362.962 354.104 362.791 354.189 362.705 354.189ZM293.437 353.334H362.107C356.719 340.849 345.089 319.127 343.806 316.733H287.194C287.964 320.239 292.838 340.763 293.437 353.334Z" fill="#263238"/>
                        <path d="M356.805 373.687H233.319V376.253H356.805V373.687Z" fill="white"/>
                        <path d="M356.72 376.595H233.32C233.063 376.595 232.892 376.424 232.892 376.167V373.602C232.892 373.345 233.063 373.174 233.32 373.174H356.806C357.062 373.174 357.234 373.345 357.234 373.602V376.167C357.148 376.424 356.977 376.595 356.72 376.595ZM233.747 375.74H356.378V374.029H233.747V375.74Z" fill="#263238"/>
                        <path d="M498.507 320.239H140.534C136.515 320.239 133.265 316.989 133.265 312.97V48.1247C133.265 44.1054 136.515 40.8558 140.534 40.8558H498.507C502.526 40.8558 505.776 44.1054 505.776 48.1247V312.97C505.69 316.989 502.441 320.239 498.507 320.239Z" fill="white"/>
                        <path d="M498.507 320.667H140.534C136.258 320.667 132.837 317.246 132.837 312.97V48.1248C132.837 43.8489 136.258 40.4283 140.534 40.4283H498.507C502.783 40.4283 506.203 43.8489 506.203 48.1248V312.97C506.118 317.16 502.697 320.667 498.507 320.667ZM140.534 41.2834C136.771 41.2834 133.692 44.362 133.692 48.1248V312.97C133.692 316.733 136.771 319.811 140.534 319.811H498.507C502.27 319.811 505.348 316.733 505.348 312.97V48.1248C505.348 44.362 502.27 41.2834 498.507 41.2834H140.534Z" fill="#263238"/>
                        <path d="M489.699 320.239H131.726C127.707 320.239 124.457 316.989 124.457 312.97V48.1248C124.457 44.1055 127.707 40.8559 131.726 40.8559H489.699C493.718 40.8559 496.968 44.1055 496.968 48.1248V312.97C496.968 316.989 493.718 320.239 489.699 320.239Z" fill="#263238"/>
                        <path d="M489.699 320.667H131.726C127.45 320.667 124.03 317.246 124.03 312.97V48.1249C124.03 43.849 127.45 40.4284 131.726 40.4284H489.699C493.975 40.4284 497.396 43.849 497.396 48.1249V312.97C497.396 317.161 493.889 320.667 489.699 320.667ZM131.726 41.2835C127.963 41.2835 124.885 44.3621 124.885 48.1249V312.97C124.885 316.733 127.963 319.812 131.726 319.812H489.699C493.462 319.812 496.54 316.733 496.54 312.97V48.1249C496.54 44.3621 493.462 41.2835 489.699 41.2835H131.726Z" fill="#263238"/>
                        <path d="M489.699 320.239H131.726C127.706 320.239 124.457 316.989 124.457 312.97V276.796H496.968V312.97C496.968 316.989 493.718 320.239 489.699 320.239Z" fill="white"/>
                        <path d="M489.699 320.667H131.726C127.45 320.667 124.029 317.246 124.029 312.97V276.797C124.029 276.54 124.2 276.369 124.457 276.369H496.968C497.224 276.369 497.395 276.54 497.395 276.797V312.97C497.395 317.16 493.889 320.667 489.699 320.667ZM124.884 277.224V312.97C124.884 316.733 127.963 319.811 131.726 319.811H489.699C493.462 319.811 496.54 316.733 496.54 312.97V277.224H124.884Z" fill="#263238"/>
                        <path d="M317.554 298.518C317.554 294.755 314.475 291.676 310.713 291.676C306.95 291.676 303.871 294.755 303.871 298.518C303.871 302.28 306.95 305.359 310.713 305.359C314.475 305.359 317.554 302.28 317.554 298.518Z" fill="#263238"/>
                        <path d="M310.712 305.787C306.693 305.787 303.443 302.537 303.443 298.518C303.443 294.499 306.693 291.249 310.712 291.249C314.732 291.249 317.981 294.499 317.981 298.518C317.981 302.537 314.732 305.787 310.712 305.787ZM310.712 292.019C307.121 292.019 304.299 294.926 304.299 298.432C304.299 302.024 307.206 304.846 310.712 304.846C314.304 304.846 317.126 301.939 317.126 298.432C317.126 294.926 314.304 292.019 310.712 292.019Z" fill="#263238"/>
                        <path d="M478.154 58.2158H143.185V255.588H478.154V58.2158Z" fill="#949494"/>
                        <path d="M478.24 256.016H143.186C142.929 256.016 142.758 255.845 142.758 255.588V58.2157C142.758 57.9592 142.929 57.7881 143.186 57.7881H478.155C478.411 57.7881 478.582 57.9592 478.582 58.2157V255.588C478.668 255.845 478.411 256.016 478.24 256.016ZM143.613 255.161H477.727V58.6433H143.613V255.161Z" fill="#263238"/>
                        <path d="M439.929 58.2158H263.165V255.588H439.929V58.2158Z" fill="#EDEDED"/>
                        <path d="M440.356 256.016H262.738V57.7882H440.356V256.016ZM263.593 255.161H439.501V58.6433H263.593V255.161Z" fill="#263238"/>
                        <path d="M345.347 165.625C347.944 165.625 350.05 163.519 350.05 160.922C350.05 158.324 347.944 156.218 345.347 156.218C342.749 156.218 340.643 158.324 340.643 160.922C340.643 163.519 342.749 165.625 345.347 165.625Z" fill="white"/>
                        <path d="M345.346 166.053C342.524 166.053 340.215 163.744 340.215 160.922C340.215 158.099 342.524 155.79 345.346 155.79C348.168 155.79 350.477 158.099 350.477 160.922C350.477 163.744 348.168 166.053 345.346 166.053ZM345.346 156.646C342.952 156.646 341.07 158.527 341.07 160.922C341.07 163.316 342.952 165.197 345.346 165.197C347.741 165.197 349.622 163.316 349.622 160.922C349.622 158.527 347.741 156.646 345.346 156.646Z" fill="#263238"/>
                        <path d="M365.359 165.625C367.956 165.625 370.062 163.519 370.062 160.922C370.062 158.324 367.956 156.218 365.359 156.218C362.761 156.218 360.655 158.324 360.655 160.922C360.655 163.519 362.761 165.625 365.359 165.625Z" fill="white"/>
                        <path d="M365.358 166.053C362.536 166.053 360.227 163.744 360.227 160.922C360.227 158.099 362.536 155.79 365.358 155.79C368.18 155.79 370.489 158.099 370.489 160.922C370.489 163.744 368.266 166.053 365.358 166.053ZM365.358 156.646C362.964 156.646 361.082 158.527 361.082 160.922C361.082 163.316 362.964 165.197 365.358 165.197C367.753 165.197 369.634 163.316 369.634 160.922C369.72 158.527 367.753 156.646 365.358 156.646Z" fill="#263238"/>
                        <path d="M385.455 165.625C388.052 165.625 390.158 163.519 390.158 160.922C390.158 158.324 388.052 156.218 385.455 156.218C382.857 156.218 380.751 158.324 380.751 160.922C380.751 163.519 382.857 165.625 385.455 165.625Z" fill="white"/>
                        <path d="M385.454 166.053C382.632 166.053 380.323 163.744 380.323 160.922C380.323 158.099 382.632 155.79 385.454 155.79C388.276 155.79 390.585 158.099 390.585 160.922C390.585 163.744 388.276 166.053 385.454 166.053ZM385.454 156.646C383.06 156.646 381.178 158.527 381.178 160.922C381.178 163.316 383.06 165.197 385.454 165.197C387.849 165.197 389.73 163.316 389.73 160.922C389.73 158.527 387.763 156.646 385.454 156.646Z" fill="#263238"/>
                        <path d="M405.464 165.625C408.062 165.625 410.168 163.519 410.168 160.922C410.168 158.324 408.062 156.218 405.464 156.218C402.867 156.218 400.761 158.324 400.761 160.922C400.761 163.519 402.867 165.625 405.464 165.625Z" fill="white"/>
                        <path d="M405.465 166.052C402.643 166.052 400.334 163.743 400.334 160.921C400.334 158.099 402.643 155.79 405.465 155.79C408.287 155.79 410.596 158.099 410.596 160.921C410.596 163.743 408.287 166.052 405.465 166.052ZM405.465 156.646C403.071 156.646 401.189 158.527 401.189 160.921C401.189 163.316 403.071 165.197 405.465 165.197C407.859 165.197 409.741 163.316 409.741 160.921C409.741 158.527 407.859 156.646 405.465 156.646Z" fill="#263238"/>
                        <path d="M287.709 58.2158H179.957V255.588H287.709V58.2158Z" fill="white"/>
                        <path d="M287.794 256.016H180.043C179.786 256.016 179.615 255.845 179.615 255.588V58.2157C179.615 57.9592 179.786 57.7881 180.043 57.7881H287.794C288.05 57.7881 288.221 57.9592 288.221 58.2157V255.588C288.221 255.845 287.965 256.016 287.794 256.016ZM180.385 255.161H287.281V58.6433H180.385V255.161Z" fill="#263238"/>
                        <path d="M439.929 58.2158H179.958V127.997H439.929V58.2158Z" fill="#FB5253"/>
                        <path d="M439.929 128.425H179.958C179.701 128.425 179.53 128.254 179.53 127.997V58.2157C179.53 57.9592 179.701 57.7881 179.958 57.7881H439.929C440.185 57.7881 440.356 57.9592 440.356 58.2157V127.997C440.356 128.254 440.185 128.425 439.929 128.425ZM180.385 127.57H439.501V58.6433H180.385V127.57Z" fill="#263238"/>
                        <path d="M287.709 58.2158H179.958V127.997H287.709V58.2158Z" fill="#263238"/>
                        <path d="M287.709 128.425H179.958C179.701 128.425 179.53 128.254 179.53 127.997V58.2157C179.53 57.9592 179.701 57.7881 179.958 57.7881H287.709C287.965 57.7881 288.136 57.9592 288.136 58.2157V127.997C288.136 128.254 287.965 128.425 287.709 128.425ZM180.385 127.57H287.281V58.6433H180.385V127.57Z" fill="#263238"/>
                        <path d="M478.154 58.2154H469.003V255.588H478.154V58.2154Z" fill="#D4D4D4"/>
                        <path d="M478.239 256.016H469.089C468.832 256.016 468.661 255.845 468.661 255.588V58.2154C468.661 57.9589 468.832 57.7878 469.089 57.7878H478.239C478.495 57.7878 478.666 57.9589 478.666 58.2154V255.588C478.666 255.845 478.41 256.016 478.239 256.016ZM469.431 255.16H477.726V58.643H469.431V255.16Z" fill="#263238"/>
                        <path d="M478.153 133.214H469.003V184.524H478.153V133.214Z" fill="#949494"/>
                        <path d="M478.239 184.952H469.088C468.832 184.952 468.661 184.781 468.661 184.524V133.214C468.661 132.957 468.832 132.786 469.088 132.786H478.239C478.495 132.786 478.666 132.957 478.666 133.214V184.524C478.666 184.781 478.41 184.952 478.239 184.952ZM469.43 184.096H477.725V133.642H469.43V184.096Z" fill="#263238"/>
                        <path d="M478.154 58.2158H143.185V74.2074H478.154V58.2158Z" fill="#D4D4D4"/>
                        <path d="M478.24 74.6349H143.186C142.929 74.6349 142.758 74.4639 142.758 74.2073V58.2157C142.758 57.9592 142.929 57.7881 143.186 57.7881H478.155C478.411 57.7881 478.582 57.9592 478.582 58.2157V74.2073C478.668 74.3784 478.411 74.6349 478.24 74.6349ZM143.613 73.7798H477.727V58.6433H143.613V73.7798Z" fill="#263238"/>
                        <path d="M321.915 62.3203H168.926V71.043H321.915V62.3203Z" fill="white"/>
                        <path d="M321.915 71.4708H168.925C168.669 71.4708 168.498 71.2998 168.498 71.0432V62.3205C168.498 62.064 168.669 61.8929 168.925 61.8929H321.915C322.171 61.8929 322.342 62.064 322.342 62.3205V71.0432C322.342 71.2998 322.171 71.4708 321.915 71.4708ZM169.353 70.6156H321.487V62.7481H169.353V70.6156Z" fill="#263238"/>
                        <path d="M394.006 93.0211H297.115C296.859 93.0211 296.688 92.8501 296.688 92.5935C296.688 92.337 296.859 92.1659 297.115 92.1659H394.006C394.262 92.1659 394.433 92.337 394.433 92.5935C394.433 92.8501 394.262 93.0211 394.006 93.0211Z" fill="#263238"/>
                        <path d="M363.391 102.172H297.115C296.859 102.172 296.688 102.001 296.688 101.744C296.688 101.487 296.859 101.316 297.115 101.316H363.391C363.647 101.316 363.818 101.487 363.818 101.744C363.818 102.001 363.647 102.172 363.391 102.172Z" fill="#263238"/>
                        <path d="M428.811 116.966H297.115C296.859 116.966 296.688 116.795 296.688 116.538C296.688 116.282 296.859 116.111 297.115 116.111H428.811C429.068 116.111 429.239 116.282 429.239 116.538C429.239 116.795 429.068 116.966 428.811 116.966Z" fill="#263238"/>
                        <path d="M422.482 176.485H296.089C295.832 176.485 295.661 176.314 295.661 176.058C295.661 175.801 295.832 175.63 296.089 175.63H422.482C422.739 175.63 422.91 175.801 422.91 176.058C422.91 176.314 422.653 176.485 422.482 176.485Z" fill="#263238"/>
                        <path d="M422.482 186.576H296.089C295.832 186.576 295.661 186.405 295.661 186.149C295.661 185.892 295.832 185.721 296.089 185.721H422.482C422.739 185.721 422.91 185.892 422.91 186.149C422.91 186.405 422.653 186.576 422.482 186.576Z" fill="#263238"/>
                        <path d="M422.482 196.667H296.089C295.832 196.667 295.661 196.496 295.661 196.24C295.661 195.983 295.832 195.812 296.089 195.812H422.482C422.739 195.812 422.91 195.983 422.91 196.24C422.91 196.496 422.653 196.667 422.482 196.667Z" fill="#263238"/>
                        <path d="M276.506 176.485H188.082C187.826 176.485 187.655 176.314 187.655 176.058C187.655 175.801 187.826 175.63 188.082 175.63H276.506C276.763 175.63 276.934 175.801 276.934 176.058C276.934 176.314 276.677 176.485 276.506 176.485Z" fill="#263238"/>
                        <path d="M276.506 186.576H188.082C187.825 186.576 187.654 186.405 187.654 186.149C187.654 185.892 187.825 185.721 188.082 185.721H276.506C276.763 185.721 276.934 185.892 276.934 186.149C276.934 186.405 276.677 186.576 276.506 186.576Z" fill="#263238"/>
                        <path d="M276.506 196.667H188.082C187.825 196.667 187.654 196.496 187.654 196.24C187.654 195.983 187.825 195.812 188.082 195.812H276.506C276.763 195.812 276.934 195.983 276.934 196.24C276.934 196.496 276.677 196.667 276.506 196.667Z" fill="#263238"/>
                        <path d="M422.482 226.342H296.089C295.832 226.342 295.661 226.171 295.661 225.914C295.661 225.658 295.832 225.487 296.089 225.487H422.482C422.739 225.487 422.91 225.658 422.91 225.914C422.91 226.171 422.653 226.342 422.482 226.342Z" fill="#263238"/>
                        <path d="M422.482 236.433H296.089C295.832 236.433 295.661 236.262 295.661 236.005C295.661 235.749 295.832 235.578 296.089 235.578H422.482C422.739 235.578 422.91 235.749 422.91 236.005C422.91 236.262 422.653 236.433 422.482 236.433Z" fill="#263238"/>
                        <path d="M422.482 246.524H296.089C295.832 246.524 295.661 246.353 295.661 246.096C295.661 245.839 295.832 245.668 296.089 245.668H422.482C422.739 245.668 422.91 245.839 422.91 246.096C422.91 246.353 422.653 246.524 422.482 246.524Z" fill="#263238"/>
                        <path d="M276.506 226.342H188.082C187.826 226.342 187.655 226.171 187.655 225.914C187.655 225.658 187.826 225.487 188.082 225.487H276.506C276.763 225.487 276.934 225.658 276.934 225.914C276.934 226.171 276.677 226.342 276.506 226.342Z" fill="#263238"/>
                        <path d="M276.506 236.433H188.082C187.825 236.433 187.654 236.262 187.654 236.005C187.654 235.749 187.825 235.578 188.082 235.578H276.506C276.763 235.578 276.934 235.749 276.934 236.005C276.934 236.262 276.677 236.433 276.506 236.433Z" fill="#263238"/>
                        <path d="M276.506 246.524H188.082C187.825 246.524 187.654 246.353 187.654 246.096C187.654 245.839 187.825 245.668 188.082 245.668H276.506C276.763 245.668 276.934 245.839 276.934 246.096C276.934 246.353 276.677 246.524 276.506 246.524Z" fill="#263238"/>
                        <defs>
                        <linearGradient id="paint0_linear_2_27" x1="87.0199" y1="113.235" x2="84.5108" y2="147.636" gradientUnits="userSpaceOnUse">
                        <stop offset="0.0967585" stop-color="#E4F2FF"/>
                        <stop offset="1" stop-color="#D9D9D9" stop-opacity="0"/>
                        </linearGradient>
                        <linearGradient id="paint1_linear_2_27" x1="59.2819" y1="141.127" x2="57.9377" y2="159.557" gradientUnits="userSpaceOnUse">
                        <stop offset="0.0967585" stop-color="#E4F2FF"/>
                        <stop offset="1" stop-color="#D9D9D9" stop-opacity="0"/>
                        </linearGradient>
                        </defs>
                    </svg>