<svg width="14" height="19" viewBox="0 0 14 19" fill="none" xmlns="http://www.w3.org/2000/svg">
<path d="M12.25 6.33333H11.375V4.52381C11.375 2.02667 9.415 0 7 0C4.585 0 2.625 2.02667 2.625 4.52381V6.33333H1.75C0.7875 6.33333 0 7.14762 0 8.14286V17.1905C0 18.1857 0.7875 19 1.75 19H12.25C13.2125 19 14 18.1857 14 17.1905V8.14286C14 7.14762 13.2125 6.33333 12.25 6.33333ZM4.375 4.52381C4.375 3.0219 5.5475 1.80952 7 1.80952C8.4525 1.80952 9.625 3.0219 9.625 4.52381V6.33333H4.375V4.52381ZM12.25 17.1905H1.75V8.14286H12.25V17.1905ZM7 14.4762C7.9625 14.4762 8.75 13.6619 8.75 12.6667C8.75 11.6714 7.9625 10.8571 7 10.8571C6.0375 10.8571 5.25 11.6714 5.25 12.6667C5.25 13.6619 6.0375 14.4762 7 14.4762Z" fill="#9B9DA6"/>
</svg>
