<svg width="14" height="10" viewBox="0 0 14 10" fill="none" xmlns="http://www.w3.org/2000/svg">
<path d="M7 0C3.81818 0 1.10091 2.07333 0 5C1.10091 7.92667 3.81818 10 7 10C10.1818 10 12.8991 7.92667 14 5C12.8991 2.07333 10.1818 0 7 0ZM7 8.33333C5.24364 8.33333 3.81818 6.84 3.81818 5C3.81818 3.16 5.24364 1.66667 7 1.66667C8.75636 1.66667 10.1818 3.16 10.1818 5C10.1818 6.84 8.75636 8.33333 7 8.33333ZM7 3C5.94364 3 5.09091 3.89333 5.09091 5C5.09091 6.10667 5.94364 7 7 7C8.05636 7 8.90909 6.10667 8.90909 5C8.90909 3.89333 8.05636 3 7 3Z" fill="#787878"/>
</svg>
